{"glyphs":{":":{"x_min":0,"x_max":180,"ha":180,"o":"m 67 96 b 76 96 85 102 96 114 b 106 125 113 139 117 153 b 121 167 117 178 106 185 b 95 190 84 190 73 185 b 62 179 53 171 45 161 b 37 151 31 142 29 134 b 26 125 28 116 36 109 b 44 103 55 98 67 96 z m 101 274 b 109 274 119 280 129 292 b 139 304 146 317 150 331 b 154 346 150 356 140 363 b 128 369 117 368 106 363 b 96 357 86 349 78 339 b 70 329 65 320 62 312 b 59 303 62 294 70 288 b 78 281 88 276 101 274 z"},"$":{"x_min":0,"x_max":520,"ha":520,"o":"m 224 215 b 240 216 254 212 268 204 b 268 204 270 205 274 208 b 278 212 283 216 289 222 b 298 230 305 240 310 250 b 315 260 312 269 303 275 b 302 276 300 277 299 277 b 281 286 260 289 237 288 b 203 285 168 273 135 252 b 101 232 74 206 54 174 b 34 142 28 106 37 68 b 45 40 63 21 91 11 b 119 0 150 -3 185 -1 b 181 -21 177 -40 174 -57 b 173 -62 172 -68 171 -73 b 170 -77 172 -81 177 -83 b 181 -85 187 -86 193 -87 b 200 -87 207 -88 214 -87 b 221 -87 227 -87 232 -86 b 236 -86 239 -85 239 -85 b 240 -67 245 -36 252 9 b 300 22 342 44 379 74 b 416 104 444 137 463 173 b 483 209 490 243 484 273 b 479 305 457 328 420 343 b 385 356 350 364 316 368 b 312 369 308 370 303 370 b 285 373 269 376 254 379 b 234 383 220 390 212 398 b 203 407 202 421 209 439 b 228 482 253 521 286 553 b 315 582 342 604 368 619 b 391 631 408 636 418 633 b 428 630 427 617 414 594 b 389 552 366 523 344 508 b 330 498 318 491 309 488 b 300 485 295 483 295 483 b 295 483 295 481 295 477 b 294 473 294 468 295 462 b 295 456 296 450 298 444 b 300 438 304 434 308 430 b 313 426 319 425 328 425 b 330 425 332 426 334 427 b 362 434 388 449 414 474 b 438 498 458 525 474 556 b 488 586 494 615 490 643 b 487 669 470 690 439 703 b 424 709 408 712 391 712 b 396 733 401 751 405 767 b 409 779 408 788 404 793 b 400 799 394 802 386 802 b 378 803 370 802 361 800 b 353 798 345 796 338 794 b 333 792 329 791 329 791 b 329 791 323 759 312 697 b 266 679 225 651 187 613 b 149 576 122 535 107 491 b 92 447 95 406 117 368 b 130 347 148 332 170 323 b 193 314 216 309 241 307 b 256 306 271 305 286 304 b 292 304 298 303 304 303 b 324 302 341 299 354 295 b 368 291 375 282 376 269 b 376 240 365 210 344 180 b 323 149 297 123 267 101 b 244 84 220 74 197 68 b 178 63 161 64 145 70 b 116 84 103 102 107 124 b 111 146 125 167 148 186 b 171 204 196 214 224 215 z"},"?":{"x_min":0,"x_max":376,"ha":376,"o":"m 114 89 b 104 93 95 93 86 88 b 77 83 68 77 62 68 b 55 60 50 52 48 45 b 45 37 47 30 54 24 b 61 18 70 14 81 13 b 88 12 96 17 105 27 b 114 38 120 49 123 62 b 126 74 124 83 114 89 z m 351 688 b 349 718 336 739 313 750 b 290 762 262 765 229 759 b 195 753 163 740 130 719 b 99 698 73 669 54 635 b 34 600 26 559 31 512 b 32 502 36 496 43 493 b 49 491 57 491 66 494 b 75 497 84 500 92 505 b 101 510 108 514 114 518 b 121 522 124 524 124 524 b 107 547 103 572 111 600 b 120 628 135 654 156 676 b 178 699 200 712 223 717 b 246 722 264 712 276 688 b 283 668 279 643 263 610 b 248 578 228 546 204 513 b 180 480 158 452 138 429 b 117 406 107 394 107 394 b 107 394 105 383 100 361 b 96 339 90 313 84 284 b 78 254 73 228 68 203 b 63 178 60 162 59 154 b 59 149 61 145 65 143 b 70 140 76 138 83 137 b 90 137 97 136 104 137 b 111 137 117 137 122 138 b 126 138 129 139 129 139 l 176 385 b 176 385 185 395 203 414 b 222 433 242 458 265 488 b 289 519 309 551 326 586 b 343 622 352 655 351 688 z"},"<":{"x_min":0,"x_max":451,"ha":451,"o":"m 427 471 b 427 471 422 473 414 478 b 406 483 395 488 381 491 b 368 495 352 496 335 493 b 318 491 301 482 284 468 b 265 453 242 432 214 407 b 186 381 157 354 128 328 b 99 301 75 278 55 260 b 36 241 25 231 24 230 b 25 229 32 219 44 201 b 57 182 73 160 92 133 b 110 106 129 80 147 54 b 167 28 182 8 194 -8 b 207 -22 221 -30 236 -33 b 252 -35 268 -35 283 -31 b 298 -27 311 -22 321 -18 b 332 -13 336 -10 336 -10 b 308 4 280 23 253 49 b 226 75 201 102 178 129 b 156 157 138 181 124 201 b 110 220 104 230 104 230 b 104 230 120 245 153 274 b 186 303 227 336 276 373 b 325 410 375 443 427 471 z"},"'":{"x_min":0,"x_max":132,"ha":132,"o":"m 74 569 b 74 569 76 576 81 590 b 85 604 90 621 95 640 b 100 658 104 675 105 690 b 107 705 105 714 101 717 b 98 718 95 718 90 718 b 85 718 80 718 74 717 b 68 717 64 716 60 715 b 56 715 54 714 54 714 b 53 713 52 708 51 700 b 50 690 47 675 44 657 b 38 625 32 600 27 584 b 26 578 25 574 24 571 b 24 571 27 570 31 569 b 36 568 41 568 47 567 b 54 567 60 567 64 567 b 69 567 73 568 74 569 z"},"=":{"x_min":0,"x_max":389,"ha":389,"o":"m 346 133 b 349 133 351 135 353 140 b 355 145 356 150 358 157 b 359 165 361 171 362 179 b 363 186 364 192 364 197 b 365 202 365 204 365 204 b 365 204 352 204 326 203 b 300 202 269 201 232 200 b 196 199 160 199 125 200 b 89 201 61 203 40 206 b 40 206 39 203 37 197 b 35 190 33 184 31 175 b 29 167 27 160 26 154 b 25 147 25 144 26 142 b 33 137 50 134 76 133 b 102 133 132 133 168 134 b 229 137 288 137 346 133 z m 346 269 b 349 269 351 271 353 275 b 355 280 356 286 358 293 b 359 300 361 307 362 314 b 363 322 364 328 364 333 b 365 337 365 340 365 340 b 365 340 352 339 326 338 b 300 337 269 336 232 336 b 196 335 160 335 125 336 b 89 336 61 338 40 342 b 40 342 39 339 37 333 b 35 326 33 319 31 311 b 29 303 27 296 26 290 b 25 283 25 279 26 278 b 33 272 50 270 76 269 b 102 269 132 269 168 270 b 229 273 288 272 346 269 z"},"a":{"x_min":0,"x_max":400,"ha":400,"o":"m 419 299 b 419 299 414 291 404 274 b 394 258 382 239 368 218 b 354 197 340 179 327 162 b 313 146 302 138 295 138 b 288 138 287 151 293 179 b 299 206 308 238 319 273 b 330 309 340 341 350 369 b 358 395 364 410 365 417 b 366 426 360 434 347 440 b 334 447 320 450 305 449 b 289 448 278 440 271 424 b 271 424 268 418 263 405 b 257 393 250 375 242 354 b 240 369 236 384 230 399 b 215 435 197 453 174 455 b 151 457 127 447 102 426 b 76 405 52 379 30 347 b 8 314 -10 281 -23 249 b -44 192 -54 144 -51 105 b -48 66 -38 37 -19 20 b 0 2 22 -3 49 3 b 68 10 88 25 109 50 b 129 74 148 101 166 130 b 157 100 152 74 150 52 b 149 33 157 20 173 13 b 189 5 212 8 240 22 b 268 36 299 64 334 108 b 368 152 402 215 437 299 l 419 299 z m 102 145 b 102 145 101 145 99 143 b 97 142 95 141 92 140 b 88 139 85 138 82 137 b 79 137 76 138 73 139 b 70 141 68 144 67 148 b 66 153 65 160 66 168 b 67 178 72 195 80 220 b 87 245 99 271 113 299 b 126 327 144 351 163 370 b 175 382 184 387 189 385 b 194 383 198 376 202 365 b 210 343 210 319 202 293 b 193 268 181 244 166 222 b 150 200 136 181 122 167 b 109 152 102 145 102 145 z"},"L":{"x_min":0,"x_max":570,"ha":570,"o":"m 133 438 b 118 474 117 513 130 555 b 144 597 164 637 189 675 b 215 713 239 745 261 769 b 239 692 211 588 179 458 b 146 329 120 201 98 76 b 96 76 94 76 93 75 b 83 73 73 72 61 73 b 48 74 36 81 24 95 b 24 95 23 93 20 89 b 17 85 13 80 9 73 b 6 67 3 60 1 53 b 0 45 0 38 1 30 b 4 23 9 17 18 10 b 40 -2 70 -7 109 -2 b 149 1 191 9 237 19 b 269 26 300 32 331 37 b 344 39 356 38 366 36 b 376 33 385 30 391 26 b 398 21 403 18 407 14 b 410 10 412 9 412 9 b 425 16 437 27 446 43 b 457 59 462 75 464 91 b 466 107 461 119 449 126 b 430 135 407 139 379 135 b 351 132 323 126 295 118 b 268 109 245 102 227 95 b 216 91 208 88 205 87 b 233 239 258 359 278 447 b 299 536 318 609 334 667 b 348 718 361 770 374 822 b 375 833 370 842 359 849 b 348 856 335 861 321 863 b 308 866 297 866 292 862 b 292 862 280 854 257 835 b 234 817 207 792 175 762 b 144 731 115 697 87 658 b 60 620 40 581 29 540 b 18 499 21 459 40 421 b 44 412 50 407 58 406 b 65 404 74 405 82 408 b 91 411 99 415 106 419 b 114 424 121 428 125 432 b 130 436 133 438 133 438 z"},"3":{"x_min":0,"x_max":494,"ha":494,"o":"m 259 402 b 259 402 271 415 296 441 b 321 467 350 497 381 532 b 413 566 440 597 463 625 b 468 632 470 642 468 654 b 467 667 464 680 459 693 b 454 706 449 716 443 725 b 437 733 432 736 427 735 b 389 717 353 705 318 696 b 284 687 254 682 227 679 b 200 676 179 675 164 675 b 148 676 140 676 140 676 b 140 676 139 674 137 669 b 135 665 133 659 131 652 b 129 646 128 639 127 631 b 126 624 126 618 128 612 b 130 606 134 603 140 601 b 158 595 181 595 208 598 b 236 602 264 608 292 616 b 320 624 344 631 363 638 b 382 645 392 648 392 648 b 392 648 378 635 351 609 b 323 583 291 553 254 518 b 218 482 184 449 153 418 b 122 387 102 364 93 351 b 87 342 84 334 83 327 b 83 319 84 313 87 307 b 90 302 93 297 97 293 b 101 290 105 287 108 286 b 111 284 113 283 113 283 b 113 283 123 287 141 294 b 160 302 183 310 209 318 b 236 327 261 334 286 338 b 311 343 330 343 344 338 b 364 329 373 309 369 279 b 366 249 354 217 332 183 b 311 149 283 121 250 98 b 217 74 182 64 143 68 b 118 72 103 88 98 117 b 93 145 102 175 123 208 b 123 208 121 210 118 214 b 114 218 109 223 103 228 b 97 232 90 236 83 238 b 75 241 67 240 60 237 b 52 234 45 227 38 215 b 13 168 4 127 13 93 b 21 59 42 33 73 16 b 104 -2 141 -9 183 -6 b 226 -2 269 13 311 40 b 354 67 391 108 422 164 b 450 216 467 259 471 292 b 475 324 470 349 457 366 b 444 384 427 396 406 402 b 384 408 362 411 340 411 b 318 410 298 409 283 406 b 267 403 259 402 259 402 z"},";":{"x_min":0,"x_max":170,"ha":170,"o":"m 24 90 l 27 74 b 46 78 63 86 80 99 b 96 111 107 126 115 144 b 123 161 124 178 118 195 b 112 207 105 214 94 217 b 84 220 74 220 64 216 b 54 212 48 206 44 196 b 43 190 43 186 44 182 b 45 178 46 174 49 171 b 51 168 54 166 57 164 b 59 162 62 161 63 160 b 65 159 66 159 66 159 b 68 150 66 140 61 130 b 56 120 50 111 43 103 b 36 96 29 91 24 90 z m 130 385 b 119 391 107 390 97 385 b 86 379 76 371 68 361 b 61 351 55 342 52 334 b 49 325 52 316 60 310 b 68 303 79 298 91 296 b 100 296 109 302 119 313 b 129 326 137 339 140 353 b 144 368 141 378 130 385 z"},"J":{"x_min":0,"x_max":438,"ha":438,"o":"m 109 441 b 135 463 166 498 201 545 b 236 593 268 637 296 679 b 312 701 324 719 334 732 b 343 746 349 751 349 750 b 354 730 354 697 350 651 b 345 604 339 557 331 508 b 323 460 314 424 307 399 b 215 374 145 341 96 303 b 47 264 16 225 2 185 b -12 144 -13 108 0 76 b 13 44 34 21 65 8 b 96 -5 132 -3 173 13 b 222 34 266 72 303 125 b 340 178 371 239 395 309 b 419 378 436 449 446 521 b 456 593 458 659 453 719 b 448 779 434 825 413 858 b 400 867 385 866 367 855 b 349 844 329 826 307 801 b 285 777 261 750 236 719 b 211 688 185 657 157 626 b 130 596 104 570 76 549 b 49 528 23 515 -2 511 b -1 506 2 498 8 486 b 13 475 21 463 31 451 b 41 439 52 432 65 428 b 78 425 93 429 109 441 z m 190 119 b 170 99 150 91 129 96 b 108 101 97 115 95 140 b 96 178 114 213 149 246 b 185 279 231 312 291 344 b 260 237 226 162 190 119 z"},"V":{"x_min":0,"x_max":598,"ha":598,"o":"m 110 354 b 129 375 143 397 150 420 b 157 443 163 470 167 501 b 170 523 175 547 181 575 b 186 603 194 635 206 670 b 212 691 221 711 231 729 b 242 746 252 759 261 768 b 271 776 277 777 280 770 b 291 743 294 708 292 667 b 289 626 281 582 270 533 b 259 485 246 436 232 385 b 218 332 205 281 194 233 b 183 185 177 142 176 105 b 176 68 184 41 200 22 b 217 4 245 -2 286 5 b 329 14 374 45 420 97 b 467 149 508 212 544 287 b 581 361 606 437 620 513 b 634 589 629 656 607 713 b 597 738 583 755 565 764 b 547 773 529 774 511 766 b 492 758 477 740 463 712 b 463 712 465 711 469 709 b 473 708 478 705 483 700 b 489 696 494 690 500 683 b 505 675 509 666 512 655 b 527 599 527 536 513 466 b 498 396 474 329 440 263 b 406 197 367 143 323 99 b 300 106 296 167 312 282 b 327 396 358 552 406 747 b 416 791 411 822 393 842 b 375 862 349 868 316 861 b 283 854 250 833 216 798 b 182 763 154 712 132 646 b 130 640 128 634 127 628 b 107 559 86 503 66 463 b 46 422 14 390 -30 365 b -29 365 -29 364 -28 363 b -23 357 -15 349 -1 338 b 12 328 28 322 48 321 b 67 320 88 331 110 354 z"},"\"":{"x_min":0,"x_max":214,"ha":214,"o":"m 74 570 b 74 570 76 577 81 591 b 85 605 90 622 96 641 b 101 659 104 676 106 691 b 107 706 106 715 101 718 b 99 719 95 719 90 719 b 85 719 80 719 75 718 b 69 718 64 717 60 716 b 56 716 54 715 54 715 b 54 714 53 709 52 701 b 50 691 48 676 45 658 b 39 625 33 601 28 585 b 26 579 25 575 24 572 b 25 572 27 571 32 570 b 36 569 42 569 48 568 b 54 568 60 568 65 568 b 70 568 73 569 74 570 z m 156 570 b 156 570 158 577 163 591 b 167 605 172 622 177 641 b 182 659 186 676 188 691 b 189 706 188 715 183 718 b 180 719 177 719 172 719 b 167 719 162 719 156 718 b 150 718 146 717 142 716 b 138 716 136 715 136 715 b 135 714 134 709 133 701 b 132 691 129 676 126 658 b 120 625 114 601 109 585 b 108 579 106 575 106 572 b 106 572 108 571 113 570 b 118 569 123 569 129 568 b 136 568 141 568 146 568 b 151 568 155 569 156 570 z"},"7":{"x_min":0,"x_max":402,"ha":402,"o":"m 137 713 b 137 713 135 710 130 706 b 125 702 120 696 115 689 b 109 682 105 674 103 666 b 100 658 100 650 104 642 b 107 634 115 628 127 623 b 155 614 191 610 237 611 b 283 612 319 614 347 616 b 356 617 363 617 366 617 b 369 617 358 597 334 557 b 310 516 280 466 243 408 b 207 349 170 290 133 231 b 96 172 64 123 39 83 b 13 42 0 21 0 21 b 0 21 2 20 7 16 b 12 11 18 7 26 2 b 33 -3 42 -7 51 -10 b 60 -13 68 -13 77 -11 b 85 -9 93 -3 100 7 b 113 28 127 51 142 74 b 218 195 292 315 366 435 b 439 555 488 638 511 685 b 515 697 503 703 475 704 b 446 704 410 702 367 698 b 334 695 303 692 271 691 b 239 689 211 690 187 693 b 163 696 146 703 137 713 z"},"S":{"x_min":0,"x_max":595,"ha":595,"o":"m 276 247 b 276 247 279 249 284 253 b 290 258 296 264 303 271 b 310 277 315 285 321 292 b 326 300 329 308 330 315 b 330 322 326 328 318 333 b 290 348 255 352 216 345 b 176 337 138 321 101 296 b 64 271 35 240 15 204 b -6 167 -11 127 -1 83 b 5 58 21 38 43 25 b 65 12 92 5 122 2 b 152 0 183 0 213 5 b 277 15 334 37 384 73 b 435 108 474 149 502 195 b 530 241 542 284 537 324 b 532 365 506 395 459 415 b 435 424 412 431 387 436 b 363 440 340 444 318 447 b 292 451 268 456 249 460 b 229 466 214 473 206 484 b 198 495 198 510 206 530 b 224 575 250 616 283 652 b 316 688 349 716 381 736 b 413 756 437 766 453 764 b 468 762 468 746 452 716 b 434 685 417 661 399 643 b 383 625 367 612 354 603 b 340 594 330 589 321 586 b 313 584 309 583 309 583 b 309 583 309 581 309 575 b 308 569 308 562 309 555 b 309 547 311 540 314 533 b 317 526 322 520 329 517 b 335 513 345 512 356 515 b 389 523 421 542 451 571 b 481 600 505 633 523 670 b 541 707 548 742 543 774 b 539 807 519 832 482 847 b 445 861 405 862 361 851 b 318 838 276 818 235 788 b 195 758 160 724 131 684 b 102 644 83 604 75 562 b 66 520 73 480 94 444 b 108 422 127 406 149 395 b 172 385 196 377 222 374 b 248 371 272 369 297 368 b 328 367 353 364 374 359 b 394 354 404 343 406 325 b 406 296 397 266 378 234 b 359 203 335 174 306 148 b 276 122 246 103 214 91 b 183 79 154 78 128 87 b 97 101 82 120 83 144 b 83 167 95 190 116 211 b 138 233 164 248 193 257 b 223 266 250 262 276 247 z"},"}":{"x_min":0,"x_max":398,"ha":398,"o":"m 183 742 b 175 739 168 736 164 731 b 159 727 156 722 154 716 b 152 711 151 706 151 701 b 151 696 151 692 152 689 b 152 686 153 685 153 685 b 167 695 179 696 190 687 b 202 677 209 658 212 628 b 215 599 211 559 200 508 b 195 487 194 468 196 452 b 199 437 203 424 209 413 b 216 403 223 395 230 388 b 238 382 245 378 250 375 b 255 373 258 372 258 372 b 258 372 253 370 244 366 b 234 361 223 354 209 344 b 196 334 184 320 172 302 b 161 285 153 262 149 235 b 136 159 118 107 94 78 b 70 49 51 43 35 59 b 35 59 35 57 33 54 b 31 51 29 47 27 42 b 26 38 25 32 25 27 b 24 22 26 17 29 12 b 32 8 37 4 44 1 b 70 -6 92 -2 110 13 b 128 29 145 52 158 81 b 172 110 184 141 196 172 b 206 201 216 226 227 249 b 237 271 248 288 260 298 b 288 319 310 335 326 346 b 343 356 355 363 363 367 b 371 370 374 372 374 372 b 374 372 371 374 365 377 b 358 380 349 387 336 398 b 323 408 307 424 288 446 b 280 456 274 472 272 495 b 271 518 270 543 271 571 b 271 603 270 633 267 663 b 265 691 257 714 245 730 b 232 746 212 750 183 742 z"},"Z":{"x_min":0,"x_max":644,"ha":644,"o":"m 637 853 b 587 849 536 840 484 826 b 434 813 383 804 332 798 b 281 793 231 800 182 819 b 161 783 155 755 163 734 b 170 714 188 701 215 697 b 232 695 261 697 301 704 b 342 710 385 718 431 727 b 463 733 493 738 519 743 b 546 747 566 750 581 750 b 595 751 600 749 594 744 b 563 713 515 667 447 605 b 379 543 308 478 232 410 b 157 341 92 283 37 233 b -18 184 -45 160 -45 160 b -45 160 -45 153 -45 139 b -45 125 -44 109 -42 90 b -40 72 -35 55 -28 38 b -21 22 -11 11 3 4 b 17 -2 35 0 58 11 b 117 41 169 60 215 68 b 260 77 300 78 333 73 b 366 68 394 60 415 48 b 436 37 452 26 462 16 b 472 6 478 1 478 1 b 478 1 480 3 486 8 b 492 12 498 18 506 26 b 513 34 520 42 526 52 b 540 78 537 101 517 119 b 497 138 464 152 419 160 b 375 168 324 168 266 162 b 208 155 149 140 88 114 b 88 114 122 147 188 213 b 256 279 334 355 424 442 b 515 528 598 606 675 675 b 693 693 701 716 699 744 b 697 772 689 797 677 819 b 664 841 650 852 637 853 z"},"x":{"x_min":0,"x_max":282,"ha":282,"o":"m 298 307 b 270 250 241 202 211 164 b 182 125 159 104 143 99 b 135 97 129 105 125 126 b 120 146 116 174 114 208 b 146 250 172 286 193 314 b 209 336 219 350 223 354 b 227 359 228 365 226 372 b 225 378 222 385 218 392 b 214 398 210 404 206 409 b 203 414 201 416 201 416 b 200 409 191 393 174 368 b 157 343 136 314 109 280 l 109 288 b 107 314 104 340 102 367 b 100 393 97 413 94 426 b 92 435 87 439 78 439 b 70 438 60 436 48 431 b 37 425 25 419 15 412 b 3 405 -6 398 -13 393 b -21 387 -24 384 -24 384 b -24 384 -22 373 -17 350 b -12 326 -6 298 1 266 b 8 233 14 202 20 171 b 19 169 18 168 17 167 b 17 167 17 167 17 167 b -22 122 -58 83 -91 51 b -91 51 -91 49 -90 45 b -89 41 -88 36 -87 31 b -86 25 -84 20 -83 14 b -81 9 -79 5 -77 2 b -75 -1 -73 -2 -70 0 b -43 21 -10 55 29 103 b 34 80 38 64 41 56 b 51 30 66 14 85 6 b 104 -2 122 -1 137 8 b 166 28 195 63 225 114 b 254 165 284 227 312 298 l 298 307 z"},")":{"x_min":0,"x_max":363,"ha":363,"o":"m 194 755 b 194 755 198 748 205 731 b 212 715 220 692 227 663 b 234 634 239 599 240 559 b 241 519 236 474 226 425 b 214 376 194 325 165 271 b 135 216 94 160 40 102 b 29 90 25 80 26 70 b 26 61 31 52 38 44 b 45 36 53 29 63 24 b 72 18 81 14 87 10 b 95 7 98 6 98 6 b 98 6 110 21 135 50 b 159 80 187 119 218 169 b 249 219 276 274 300 337 b 323 400 336 465 337 532 b 338 600 320 666 283 730 b 275 743 267 752 259 758 b 250 764 242 768 234 768 b 227 769 220 768 214 766 b 208 764 203 762 199 759 b 196 757 194 755 194 755 z"},"&":{"x_min":0,"x_max":638,"ha":638,"o":"m 453 147 b 468 173 481 198 493 223 b 502 244 508 263 511 278 b 515 293 516 305 514 315 b 513 325 509 333 505 339 b 500 345 496 349 490 352 b 484 355 478 356 473 357 b 467 358 462 358 458 358 b 455 358 453 358 453 358 b 456 337 452 312 441 284 b 430 256 415 227 395 196 b 380 217 370 240 363 267 b 357 292 354 320 354 348 b 360 355 366 361 373 368 b 423 419 469 468 510 516 b 551 562 579 604 593 641 b 607 677 599 705 569 723 b 530 745 493 748 457 733 b 420 718 388 690 359 650 b 331 611 308 564 292 512 b 274 459 266 406 266 352 b 245 334 222 316 199 299 b 155 267 120 231 91 193 b 63 156 45 119 37 84 b 29 48 32 19 47 -6 b 63 -30 92 -46 135 -51 b 186 -57 233 -48 276 -27 b 318 -5 356 24 389 62 b 446 21 504 15 562 44 b 571 49 578 55 582 62 b 585 69 588 77 588 85 b 589 93 588 100 587 107 b 586 114 584 120 583 124 b 582 128 581 130 581 130 b 527 125 485 131 453 147 z m 464 622 b 478 612 476 590 456 557 b 437 523 405 484 361 439 b 368 477 377 510 389 540 b 401 569 414 592 427 607 b 440 623 453 627 464 622 z m 133 41 b 134 70 147 104 174 143 b 201 181 235 223 276 267 b 290 206 310 156 336 118 b 305 82 274 52 243 28 b 212 4 187 -8 166 -8 b 146 -9 134 7 133 41 z"},"_":{"x_min":0,"x_max":405,"ha":405,"o":"m 380 -4 b 380 -4 361 -5 321 -9 b 282 -12 236 -14 184 -16 b 131 -17 83 -16 39 -11 b 39 -11 38 -14 36 -18 b 34 -22 32 -28 30 -34 b 28 -40 26 -45 26 -50 b 25 -55 25 -58 27 -59 b 38 -64 53 -66 72 -67 b 91 -67 116 -67 145 -65 b 198 -62 270 -62 361 -66 b 365 -66 368 -64 370 -60 b 373 -56 375 -51 376 -44 b 377 -39 378 -32 379 -26 b 380 -20 380 -15 380 -10 b 380 -6 380 -4 380 -4 z"},"v":{"x_min":0,"x_max":261,"ha":261,"o":"m 231 437 b 222 402 208 361 189 313 b 170 265 150 222 131 185 b 111 147 97 126 86 123 b 80 123 76 131 76 147 b 76 163 78 184 83 210 b 87 236 92 263 97 292 b 108 343 114 385 117 417 b 118 426 114 432 106 433 b 98 435 88 435 76 432 b 64 429 52 426 40 421 b 28 417 18 413 9 409 b 1 405 -3 403 -3 403 b -3 403 -4 388 -7 358 b -9 329 -12 294 -15 254 b -19 214 -21 177 -23 143 b -25 109 -26 85 -25 73 b -21 45 -11 25 5 12 b 22 0 40 -3 57 3 b 78 14 102 45 129 96 b 156 148 182 205 206 268 b 230 331 249 385 261 431 l 231 437 z"},"O":{"x_min":0,"x_max":533,"ha":533,"o":"m 29 584 b 48 595 68 609 87 626 b 107 644 127 662 147 682 b 169 704 191 724 214 743 b 236 761 257 775 279 785 b 300 795 321 797 341 792 b 366 783 385 760 397 723 b 409 685 415 639 415 584 b 415 530 409 473 399 415 b 388 356 373 301 353 250 b 333 200 309 159 281 129 b 242 90 210 72 185 75 b 160 78 141 95 129 125 b 117 155 110 192 110 235 b 111 278 117 320 128 361 b 142 407 161 448 183 485 b 206 521 229 550 253 569 b 276 588 296 595 311 589 b 326 583 333 560 332 521 b 332 521 335 525 343 536 b 350 546 358 559 367 574 b 376 589 383 605 388 622 b 394 639 394 654 391 667 b 387 681 376 690 359 697 b 316 709 274 705 232 683 b 191 661 152 627 117 583 b 83 538 54 487 31 431 b 8 375 -5 320 -9 264 b -13 209 -5 160 15 117 b 45 55 83 18 127 5 b 171 -9 217 -2 265 22 b 312 48 357 87 399 142 b 440 196 475 259 500 333 b 521 391 533 451 538 513 b 542 575 539 633 526 687 b 514 740 492 783 459 815 b 428 847 384 861 330 858 b 275 855 208 828 129 777 b 125 773 119 770 112 765 b 97 754 80 743 60 730 b 39 719 18 709 -5 702 b -27 695 -50 694 -73 699 b -73 699 -72 694 -72 682 b -71 671 -70 658 -67 643 b -63 627 -59 613 -52 600 b -44 587 -34 579 -21 575 b -8 570 8 574 29 584 z"},"(":{"x_min":0,"x_max":363,"ha":363,"o":"m 168 19 b 168 19 165 26 158 43 b 150 59 143 82 136 111 b 128 140 124 175 123 215 b 122 256 126 300 137 349 b 148 397 168 449 198 503 b 227 558 269 615 323 673 b 333 684 338 694 337 704 b 336 713 332 722 325 730 b 317 738 309 745 300 750 b 291 756 282 760 275 764 b 268 767 264 768 264 768 b 264 768 252 753 228 724 b 204 695 176 655 145 605 b 114 556 86 500 63 437 b 39 375 27 310 26 242 b 25 174 43 108 80 44 b 87 31 96 21 104 16 b 112 10 121 7 128 6 b 136 5 143 6 149 8 b 155 10 160 12 163 15 b 167 17 168 19 168 19 z"},"C":{"x_min":0,"x_max":417,"ha":417,"o":"m 83 569 b 50 504 26 438 10 370 b -5 302 -9 238 0 179 b 8 120 32 71 72 33 b 98 10 129 -1 165 1 b 201 3 235 18 267 47 b 301 79 336 119 371 167 b 406 216 441 270 476 329 l 447 351 b 446 351 439 342 429 327 b 414 305 394 277 368 245 b 343 212 315 184 286 159 b 256 135 228 124 201 127 b 189 129 175 137 159 153 b 142 168 129 193 119 226 b 109 259 109 303 119 356 b 129 411 154 477 196 555 b 216 548 238 539 261 526 b 297 508 332 508 363 526 b 395 543 421 570 443 607 b 464 645 478 683 484 723 b 490 764 486 797 471 825 b 457 853 429 865 388 864 b 346 860 303 840 259 803 b 215 767 174 719 136 661 b 115 667 92 667 68 663 b 44 659 20 648 -6 629 b -16 622 -22 614 -25 606 b -28 598 -29 589 -27 581 b -26 573 -24 565 -21 559 b -17 552 -14 546 -11 542 b -8 538 -7 536 -7 536 b -7 536 -3 538 3 543 b 10 547 21 552 34 558 b 47 562 63 566 83 569 z m 363 598 b 344 587 324 585 303 592 b 281 598 258 608 234 621 b 272 679 304 714 330 726 b 355 737 375 734 386 718 b 398 702 402 681 399 656 b 396 631 383 612 363 598 z"},"W":{"x_min":0,"x_max":755,"ha":755,"o":"m 59 410 b 83 426 101 444 114 465 b 126 486 139 512 152 541 b 161 562 171 585 184 611 b 197 637 213 667 233 699 b 246 719 260 736 276 750 b 292 765 306 775 317 781 b 328 787 333 786 331 778 b 321 753 312 727 302 698 b 276 630 251 558 226 482 b 200 407 180 335 165 268 b 149 199 143 143 147 96 b 152 50 171 22 205 12 b 225 8 246 15 268 34 b 289 52 310 76 330 106 b 351 136 369 167 385 198 b 401 229 414 255 424 277 b 434 299 438 310 438 310 b 438 310 436 298 429 273 b 422 249 415 220 407 186 b 399 152 392 119 385 87 b 378 55 375 30 375 12 b 375 -4 378 -18 386 -27 b 395 -37 404 -44 417 -49 b 429 -55 441 -58 453 -60 b 465 -61 476 -62 484 -62 b 492 -62 497 -62 497 -62 b 497 -62 506 -47 526 -18 b 546 12 570 50 598 97 b 626 145 654 195 681 250 b 708 304 729 357 744 409 b 759 460 764 505 758 544 b 752 582 730 609 693 624 b 680 628 668 629 658 626 b 647 624 638 620 630 613 b 622 606 615 599 609 592 b 604 584 600 578 597 572 b 594 566 592 563 592 563 b 622 552 637 527 641 487 b 644 448 638 401 624 348 b 609 295 590 243 567 192 b 543 142 519 100 494 66 b 482 52 477 50 475 60 b 474 70 476 88 480 114 b 486 140 493 169 500 201 b 509 233 517 265 525 294 b 531 318 537 339 541 356 b 545 373 548 384 548 390 b 549 402 547 412 543 419 b 538 427 533 433 525 436 b 519 439 511 442 504 443 b 497 444 490 444 485 443 b 480 443 478 443 478 443 b 478 443 471 434 459 416 b 446 397 431 375 412 348 b 393 321 374 294 354 267 b 333 239 316 216 300 197 b 284 179 277 183 279 210 b 281 237 290 279 305 335 b 321 391 341 453 366 522 b 391 591 418 658 449 723 b 467 765 471 796 460 816 b 450 837 435 850 415 856 b 394 862 377 865 365 864 b 356 865 342 861 323 854 b 304 846 280 830 252 806 b 225 781 194 744 159 694 b 145 673 132 654 120 636 b 89 587 61 548 35 520 b 9 491 -24 471 -65 460 b -65 459 -64 458 -64 458 b -62 450 -56 439 -46 425 b -37 411 -24 401 -7 395 b 10 389 32 394 59 410 z"},"A":{"x_min":0,"x_max":678,"ha":678,"o":"m -62 88 b -62 88 -59 84 -55 77 b -50 69 -44 61 -37 51 b -29 41 -20 32 -10 23 b 0 15 10 9 21 6 b 32 3 43 5 54 12 b 91 39 133 80 178 135 b 223 189 268 249 312 312 b 365 315 412 312 451 302 b 439 239 432 180 428 127 b 424 74 427 35 438 11 b 443 0 451 -8 460 -12 b 470 -16 480 -17 492 -16 b 503 -15 514 -13 524 -10 b 534 -7 542 -4 549 -1 b 556 2 559 3 559 3 b 548 34 542 72 541 117 b 539 163 541 212 546 266 b 557 258 563 253 565 249 b 565 249 569 250 577 253 b 584 256 593 260 603 265 b 613 270 623 275 631 281 b 639 287 644 293 646 299 b 649 315 643 329 627 340 b 610 352 587 361 557 367 b 568 447 580 522 593 595 b 604 659 613 713 619 758 b 625 802 625 831 619 842 b 616 846 613 850 607 854 b 602 857 597 860 591 862 b 585 863 582 862 579 860 b 561 841 542 814 520 779 b 498 745 473 705 447 660 b 419 613 389 564 357 513 b 325 462 291 411 254 362 b 203 351 158 336 122 315 b 114 311 108 306 104 301 b 101 296 100 292 99 287 b 99 283 100 278 101 274 b 103 271 104 267 107 264 b 109 261 111 258 113 257 b 115 255 116 254 116 254 b 144 269 170 280 197 289 b 158 241 116 200 73 165 b 30 129 -15 104 -62 88 z m 521 621 b 521 621 515 597 503 549 b 492 502 479 445 465 378 b 430 380 394 379 356 376 b 388 424 417 467 442 507 b 482 567 508 605 521 621 z"},"f":{"x_min":0,"x_max":246,"ha":246,"o":"m 282 304 l 261 307 b 257 293 248 275 236 253 b 224 231 206 209 184 188 b 161 167 132 153 98 144 b 94 150 91 155 88 159 b 86 163 83 166 80 170 b 79 171 78 172 77 173 b 101 269 127 372 156 484 b 186 596 208 679 225 733 b 228 742 225 749 218 752 b 211 755 202 757 190 756 b 178 756 166 754 153 752 b 141 750 130 747 122 745 b 113 743 108 742 108 742 b 108 742 101 714 87 659 b 73 604 56 538 36 460 b 16 384 -3 310 -21 238 b -40 241 -57 239 -71 234 b -84 229 -94 223 -99 216 b -112 198 -114 180 -105 160 b -96 140 -79 124 -53 109 b -53 108 -53 107 -54 105 b -58 93 -62 72 -67 42 b -73 11 -73 -22 -68 -58 b -63 -92 -48 -122 -21 -146 b 2 -166 28 -177 58 -180 b 87 -183 113 -176 135 -159 b 157 -142 169 -113 171 -72 b 172 -31 157 23 125 92 b 153 103 181 124 208 154 b 235 185 260 234 282 304 z m -33 188 b -35 182 -36 176 -38 170 b -56 182 -63 188 -60 191 b -56 193 -47 192 -33 188 z m 114 -136 b 93 -142 78 -137 68 -120 b 58 -103 52 -81 49 -53 b 47 -26 46 0 48 24 b 49 49 51 65 53 74 b 60 69 68 57 80 37 b 91 17 101 -6 111 -31 b 121 -56 126 -79 128 -99 b 130 -119 126 -131 114 -136 z"},"Q":{"x_min":0,"x_max":538,"ha":538,"o":"m 298 42 b 340 70 378 109 415 160 b 450 210 479 268 502 333 b 522 391 535 451 540 513 b 545 575 541 633 529 687 b 516 740 494 783 462 815 b 430 847 386 861 332 858 b 277 855 211 828 132 777 b 126 773 121 770 114 765 b 100 754 82 743 62 730 b 42 719 20 709 -3 702 b -25 695 -48 694 -71 699 b -71 699 -70 694 -70 682 b -69 671 -67 658 -64 643 b -62 627 -57 613 -49 600 b -42 587 -32 579 -19 575 b -6 570 10 574 31 584 b 50 595 70 609 90 626 b 109 644 129 662 149 682 b 171 704 194 724 216 743 b 238 761 260 775 281 785 b 302 795 323 797 343 792 b 369 783 387 760 399 723 b 411 685 417 639 417 584 b 417 530 412 473 401 415 b 390 356 375 301 354 250 b 334 200 311 159 283 129 b 274 120 266 112 257 106 b 252 129 252 158 258 192 b 258 192 257 193 255 194 b 252 195 250 196 246 196 b 242 197 238 197 233 197 b 229 196 225 194 220 191 b 216 188 212 184 208 177 b 196 151 192 117 195 75 b 167 75 147 89 133 119 b 120 149 113 187 113 231 b 112 275 118 319 130 361 b 144 407 163 448 186 485 b 208 521 231 550 255 569 b 278 588 298 595 313 589 b 329 583 335 560 334 521 b 334 521 337 525 345 536 b 353 546 360 559 369 574 b 378 589 385 605 390 622 b 396 639 396 654 393 667 b 389 681 378 690 361 697 b 318 709 276 705 235 683 b 193 661 154 627 120 583 b 84 538 56 487 33 431 b 11 375 -3 320 -7 264 b -11 209 -3 160 17 117 b 42 67 71 33 105 15 b 139 -2 175 -7 213 2 b 223 -21 237 -40 256 -55 b 275 -70 299 -77 328 -77 b 343 -77 355 -71 364 -62 b 374 -53 381 -42 386 -30 b 391 -18 394 -7 396 2 b 397 12 398 17 398 17 b 360 14 327 22 298 42 z"},"w":{"x_min":0,"x_max":444,"ha":444,"o":"m 471 423 b 458 390 439 352 415 310 b 391 268 368 230 345 199 b 321 167 305 150 295 149 b 285 149 282 160 287 179 b 292 199 299 223 309 252 b 322 289 332 323 339 356 b 340 365 337 372 330 374 b 322 377 312 378 301 376 b 289 375 277 373 265 370 b 252 367 242 364 233 361 b 225 358 221 356 221 356 b 221 356 215 344 205 319 b 194 295 181 267 166 236 b 150 205 135 178 119 155 b 104 132 90 121 79 123 b 72 125 70 134 72 151 b 75 167 80 189 87 214 b 94 240 102 267 111 294 b 127 344 138 385 145 417 b 146 426 143 432 136 435 b 128 438 119 438 107 437 b 95 436 83 434 71 431 b 59 427 48 424 40 421 b 31 418 26 417 26 417 b 26 417 23 402 17 373 b 11 343 4 308 -4 268 b -12 228 -19 190 -25 156 b -31 121 -35 98 -36 85 b -36 56 -28 34 -13 20 b 2 4 19 -2 37 0 b 54 3 72 16 92 37 b 111 58 130 83 148 111 b 167 140 181 168 192 196 b 188 171 185 149 182 129 b 179 109 178 94 177 85 b 177 56 185 36 200 23 b 215 10 232 6 250 11 b 271 20 298 47 331 95 b 363 143 395 197 425 257 b 457 317 481 369 499 414 l 471 423 z"},"-":{"x_min":0,"x_max":389,"ha":389,"o":"m 346 190 b 349 190 351 193 353 197 b 355 202 356 208 358 215 b 359 222 361 229 362 236 b 363 244 364 250 364 254 b 365 259 365 262 365 262 b 365 262 352 261 326 260 b 300 259 269 258 232 258 b 196 257 160 257 125 258 b 89 258 61 260 40 264 b 40 264 39 261 37 254 b 35 248 33 241 31 233 b 29 225 27 218 26 211 b 25 205 25 201 26 200 b 33 194 50 191 76 191 b 102 190 132 191 168 192 b 229 195 288 194 346 190 z"},"E":{"x_min":0,"x_max":399,"ha":399,"o":"m 116 416 b 60 374 19 328 -8 277 b -36 228 -48 180 -47 136 b -46 91 -31 57 -2 32 b 27 7 70 -1 127 8 b 172 17 216 40 260 75 b 303 111 342 152 376 200 b 411 247 438 293 458 337 l 431 351 b 431 351 424 340 410 318 b 396 296 376 270 352 241 b 328 211 299 184 267 159 b 234 134 199 118 162 111 b 125 105 101 113 87 134 b 74 155 73 184 83 220 b 93 255 114 293 147 332 b 180 371 223 406 278 437 b 286 441 292 448 294 455 b 297 462 297 471 296 479 b 296 487 294 496 292 503 b 289 511 286 517 284 522 b 281 527 280 529 280 529 b 280 529 275 527 265 523 b 255 519 242 514 228 508 b 213 502 199 497 185 492 b 170 487 159 484 150 482 b 127 479 116 489 115 512 b 115 536 124 566 143 605 b 162 644 190 684 229 727 b 259 760 282 779 296 782 b 311 785 317 777 316 761 b 315 744 306 722 291 696 b 274 669 252 644 222 618 b 222 618 223 617 223 613 b 224 610 225 606 227 602 b 229 598 231 594 235 591 b 239 587 244 585 250 584 b 257 584 265 585 274 589 b 288 596 305 612 325 637 b 345 663 363 691 380 723 b 396 755 407 784 412 810 b 417 835 411 852 394 859 b 358 871 318 865 272 844 b 227 822 183 791 142 750 b 100 709 68 666 44 620 b 21 574 13 532 22 495 b 30 458 62 431 116 416 z"},"s":{"x_min":0,"x_max":189,"ha":189,"o":"m 226 293 l 203 304 b 185 280 166 260 145 246 b 124 230 100 218 73 207 b 73 208 73 210 73 213 b 74 241 76 268 80 292 b 83 317 92 337 105 353 b 119 368 141 375 170 376 b 170 376 171 379 172 383 b 173 388 173 395 173 401 b 173 408 172 415 168 422 b 166 429 160 435 152 439 b 131 449 108 452 83 445 b 59 439 38 425 20 402 b 1 379 -9 347 -12 307 b -13 291 -12 270 -10 244 b -8 221 -7 198 -6 174 b -53 152 -83 127 -98 100 b -113 72 -116 48 -106 29 b -96 9 -76 0 -47 1 b -22 4 0 14 19 32 b 38 50 51 70 59 94 b 64 113 68 133 70 154 b 102 172 129 191 151 212 b 173 233 193 254 211 276 b 216 282 221 287 226 293 z m -61 53 b -65 56 -65 61 -61 68 b -57 75 -50 83 -41 92 b -31 100 -21 108 -10 115 b -13 97 -18 83 -26 71 b -34 60 -45 54 -61 53 z"},">":{"x_min":0,"x_max":451,"ha":451,"o":"m 24 -10 b 24 -10 28 -13 37 -18 b 45 -22 56 -27 70 -31 b 83 -35 99 -35 116 -33 b 133 -30 150 -22 167 -8 b 186 8 209 28 237 54 b 266 80 294 106 323 133 b 352 160 376 182 396 201 b 416 219 426 229 427 230 b 426 231 419 241 407 260 b 394 278 378 301 359 328 b 341 354 322 381 304 407 b 285 432 270 453 257 468 b 245 482 230 491 214 493 b 199 496 183 495 168 491 b 153 488 140 483 130 478 b 120 473 115 471 115 471 b 143 457 171 437 198 411 b 226 385 250 359 273 331 b 295 303 313 280 327 260 b 341 240 348 230 348 230 b 348 230 331 216 298 187 b 265 158 224 125 175 87 b 126 50 76 18 24 -10 z"},"l":{"x_min":0,"x_max":200,"ha":200,"o":"m 212 299 b 212 299 207 291 198 274 b 189 257 178 239 164 218 b 151 197 137 178 123 162 b 109 146 98 138 87 138 b 80 140 82 167 92 218 b 102 268 117 329 136 399 b 155 470 174 537 192 600 b 211 662 224 707 232 733 b 235 742 233 749 226 752 b 219 755 209 757 198 756 b 186 756 174 754 161 752 b 149 750 138 747 129 745 b 121 743 116 742 116 742 b 116 742 108 710 91 648 b 75 586 56 515 35 434 b 14 352 -5 278 -21 212 b -38 146 -47 106 -50 92 b -52 62 -47 40 -35 23 b -22 7 -7 -1 10 0 b 42 3 77 30 115 83 b 154 135 192 207 229 299 l 212 299 z"},"8":{"x_min":0,"x_max":404,"ha":404,"o":"m 434 655 b 413 689 383 706 346 705 b 308 705 271 691 232 664 b 194 636 164 598 142 551 b 119 503 113 449 122 389 b 111 375 96 353 77 323 b 58 293 40 260 24 224 b 9 187 1 151 0 117 b 0 83 13 54 40 31 b 69 8 104 -5 144 -6 b 183 -8 220 1 253 21 b 287 40 310 69 321 108 b 333 147 326 196 301 255 b 331 290 359 332 386 381 b 413 430 432 479 443 529 b 455 578 451 620 434 655 z m 100 60 b 84 85 80 113 86 145 b 93 176 104 206 118 232 b 132 259 144 278 152 289 b 153 286 155 283 158 280 b 160 276 162 272 165 269 b 167 265 169 262 170 259 b 208 198 228 150 230 116 b 232 82 225 58 208 46 b 190 33 171 29 149 33 b 127 37 111 45 100 60 z m 264 317 b 256 329 250 339 244 348 b 232 365 224 379 217 391 b 196 435 190 475 199 511 b 208 547 224 576 248 597 b 271 618 295 628 318 627 b 342 625 358 609 367 578 b 374 542 367 500 347 453 b 328 405 300 360 264 317 z"},"\\":{"x_min":0,"x_max":234,"ha":234,"o":"m 24 701 b 25 691 30 652 40 584 b 49 515 61 438 73 351 b 85 264 96 187 106 120 b 116 53 121 19 121 19 b 121 19 124 19 129 20 b 134 20 141 21 150 23 b 158 26 167 30 177 36 b 187 42 196 50 205 62 b 208 67 208 84 203 114 b 198 143 190 181 181 228 b 167 296 151 376 136 468 b 121 560 110 655 105 753 b 105 753 101 751 92 748 b 84 745 75 741 64 736 b 54 731 44 726 37 719 b 29 713 24 707 24 701 z"},"e":{"x_min":0,"x_max":297,"ha":297,"o":"m 314 309 b 314 309 307 298 294 277 b 281 256 264 231 243 204 b 222 176 199 151 173 128 b 148 106 124 92 99 87 b 72 83 56 90 49 109 b 42 127 46 155 62 191 b 119 194 163 209 193 236 b 224 264 241 296 245 332 b 246 338 246 346 246 357 b 246 369 244 380 240 393 b 236 405 230 416 221 424 b 211 434 198 438 180 438 b 151 438 122 426 93 404 b 64 381 38 353 16 317 b -7 283 -24 246 -35 207 b -46 168 -50 132 -45 98 b -41 64 -25 38 0 18 b 37 -5 75 -6 114 16 b 153 38 192 75 229 126 b 267 177 302 235 333 299 l 314 309 z m 194 286 b 183 273 169 266 152 263 b 134 261 118 260 104 262 b 109 269 114 276 121 283 b 132 296 143 306 153 311 b 163 316 171 319 179 319 b 188 319 194 315 197 309 b 201 302 199 294 194 286 z"},"b":{"x_min":0,"x_max":385,"ha":385,"o":"m 248 452 b 223 443 199 422 174 389 b 149 356 128 323 110 289 b 132 376 153 462 175 546 b 197 630 214 693 227 733 b 229 742 227 749 220 752 b 213 755 204 757 192 756 b 180 756 168 754 155 752 b 143 750 132 747 124 745 b 114 743 110 742 110 742 b 110 742 102 707 84 639 b 67 570 47 491 25 401 b 2 312 -18 230 -35 158 b -53 85 -62 42 -65 27 b -66 18 -63 11 -56 7 b -49 3 -40 0 -29 0 b -18 0 -7 1 5 2 b 16 4 25 6 34 8 b 42 10 45 11 45 11 b 45 11 46 14 47 21 b 48 29 49 38 51 48 b 53 59 56 70 58 81 b 60 73 63 64 66 56 b 81 21 100 2 122 0 b 145 -1 169 8 195 29 b 220 50 244 77 266 109 b 288 141 306 174 319 207 b 340 264 350 312 347 351 b 345 390 334 418 315 436 b 296 454 274 459 248 452 z m 133 85 b 121 73 112 68 107 70 b 102 72 98 79 94 90 b 85 113 86 137 94 162 b 103 187 115 211 130 233 b 146 256 161 274 174 289 b 188 303 194 311 194 311 b 194 311 195 311 197 312 b 199 313 202 314 205 316 b 208 317 211 318 214 318 b 217 318 220 318 223 316 b 226 314 228 312 229 307 b 230 302 230 296 230 287 b 229 278 224 260 216 236 b 208 211 198 185 184 157 b 169 128 153 105 133 85 z"},"%":{"x_min":0,"x_max":474,"ha":474,"o":"m 188 747 b 163 736 139 715 117 683 b 94 651 78 616 67 579 b 56 541 55 508 62 480 b 70 453 91 438 125 438 b 155 438 181 453 204 480 b 227 507 245 539 257 575 b 269 611 274 644 271 673 b 269 702 256 719 233 725 b 237 727 241 729 246 730 b 246 730 246 731 245 733 b 245 735 244 737 243 739 b 242 742 240 744 238 746 b 235 749 232 750 228 751 b 224 752 218 753 212 752 b 206 752 198 750 188 747 z m 161 503 b 145 484 132 479 122 486 b 112 494 108 509 108 532 b 108 555 116 580 129 609 b 143 637 165 664 195 688 b 218 684 228 664 223 628 b 219 592 198 551 161 503 z m 295 44 b 325 45 351 59 374 86 b 397 113 415 145 427 181 b 439 217 444 250 441 279 b 438 309 426 326 403 332 b 407 333 412 335 416 337 b 416 337 416 338 416 339 b 415 341 415 343 413 346 b 412 348 411 350 408 353 b 406 355 402 356 398 358 b 394 359 389 359 382 359 b 375 358 368 356 358 353 b 333 343 309 322 287 290 b 265 258 248 223 237 185 b 227 147 225 115 233 87 b 241 60 262 45 295 44 z m 367 294 b 382 291 390 276 390 250 b 391 223 386 195 375 167 b 364 138 350 119 331 109 b 306 100 289 105 280 123 b 272 142 274 167 287 198 b 300 230 327 262 367 294 z m 27 62 b 31 50 37 42 45 36 b 52 30 60 26 67 23 b 75 21 81 20 86 20 b 92 19 95 19 95 19 b 95 19 112 53 147 120 b 182 187 222 264 267 351 b 312 438 352 515 388 584 b 423 652 442 691 447 701 b 449 706 448 710 444 716 b 441 721 436 725 430 729 b 423 734 417 738 410 742 b 403 745 397 748 393 750 b 388 752 386 753 386 753 b 344 655 298 560 248 468 b 198 376 153 296 113 228 b 85 181 64 143 48 114 b 32 84 25 67 27 62 z"},"m":{"x_min":0,"x_max":616,"ha":616,"o":"m 635 299 b 635 299 629 289 618 270 b 607 250 594 228 578 203 b 562 178 545 156 530 138 b 514 119 501 109 491 108 b 484 109 482 118 486 135 b 489 152 495 173 504 200 b 514 226 523 253 535 282 b 554 333 568 375 577 406 b 582 426 578 441 566 452 b 555 461 540 464 520 459 b 500 454 480 439 460 415 b 441 389 419 352 393 305 b 374 270 355 239 338 211 b 321 184 308 170 299 170 b 293 170 291 177 292 191 b 294 206 298 224 304 245 b 310 266 317 287 324 308 b 331 329 337 347 343 361 b 346 372 349 378 350 382 b 358 411 354 435 338 453 b 322 471 301 478 275 473 b 249 469 223 445 199 404 b 185 378 164 342 137 294 b 110 246 86 204 65 167 b 86 243 110 323 137 408 b 139 417 137 424 131 427 b 125 431 116 432 104 432 b 93 432 82 431 70 428 b 58 426 48 424 40 422 b 31 419 27 418 27 418 b 27 418 23 404 17 375 b 9 345 1 311 -9 271 b -19 231 -28 194 -37 160 b -45 126 -51 103 -55 90 b -62 60 -61 37 -50 24 b -39 10 -25 4 -8 6 b 8 7 21 15 30 29 b 40 44 52 66 69 93 b 85 120 104 148 123 178 b 142 208 160 235 177 260 b 193 285 206 303 215 314 b 225 325 228 325 224 314 b 208 267 194 217 182 165 b 169 113 167 72 174 41 b 182 16 198 6 223 10 b 248 14 275 35 306 73 b 328 101 349 134 370 170 b 391 207 410 243 426 277 b 416 237 407 200 398 165 b 389 129 383 105 380 92 b 371 51 373 23 386 10 b 399 -2 417 -6 438 0 b 459 5 477 16 492 31 b 493 33 494 34 496 36 b 508 47 529 73 558 113 b 586 153 618 215 653 299 l 635 299 z"},"#":{"x_min":0,"x_max":560,"ha":560,"o":"m 465 305 b 458 312 446 315 432 316 b 417 317 399 317 378 315 b 386 333 393 351 400 369 b 419 370 435 371 446 372 b 458 373 463 373 463 373 b 463 373 465 375 468 380 b 471 385 474 391 478 397 b 481 403 484 409 487 415 b 489 420 489 423 488 425 b 476 435 456 438 428 437 b 457 506 480 566 500 615 b 521 665 531 693 534 700 b 535 705 534 709 531 714 b 527 719 522 723 517 727 b 511 731 504 734 498 737 b 492 740 487 742 482 744 b 478 745 476 746 476 746 b 439 637 399 531 355 430 b 322 425 287 422 250 420 b 270 463 288 503 304 539 b 326 587 344 626 356 656 b 370 687 375 704 373 709 b 369 720 362 728 355 733 b 349 738 341 742 334 744 b 327 745 321 746 316 746 b 312 746 310 746 310 746 b 310 746 296 713 270 648 b 243 583 212 508 177 422 b 143 425 109 434 78 449 b 78 449 76 446 72 442 b 69 438 65 434 61 427 b 57 421 54 414 52 406 b 50 399 50 392 52 384 b 55 377 61 371 70 365 b 81 360 107 357 151 358 b 144 340 137 323 130 305 b 104 310 79 317 55 329 b 55 329 53 327 50 323 b 46 318 42 313 39 307 b 35 301 31 294 29 287 b 27 279 27 271 30 264 b 32 257 38 250 47 245 b 55 241 73 239 103 238 b 81 186 64 143 50 108 b 36 74 28 54 26 48 b 25 43 26 39 30 34 b 33 30 38 25 43 21 b 50 18 56 14 62 11 b 68 8 74 6 78 5 b 83 3 85 2 85 2 b 111 83 140 161 172 238 b 204 239 237 241 271 242 b 266 231 261 220 256 209 b 234 161 216 122 204 92 b 191 62 186 44 187 39 b 192 28 198 21 205 15 b 212 10 219 6 226 5 b 233 3 239 2 244 2 b 249 2 251 2 251 2 b 251 2 261 26 280 73 b 299 121 323 178 351 247 b 377 249 399 250 416 251 b 432 252 440 253 440 253 b 440 253 442 255 445 260 b 448 265 452 271 455 277 b 459 283 462 289 464 294 b 466 300 467 303 465 305 z m 300 306 b 267 302 233 300 197 300 b 206 320 214 340 223 359 b 258 361 292 362 326 364 b 317 344 309 325 300 306 z"},",":{"x_min":0,"x_max":173,"ha":173,"o":"m 24 -64 l 27 -83 b 50 -79 72 -69 91 -54 b 111 -39 125 -21 134 0 b 144 21 145 42 137 63 b 131 77 122 85 109 89 b 97 93 84 93 72 88 b 61 84 53 76 48 63 b 47 57 46 52 48 46 b 49 42 51 38 54 34 b 57 30 60 27 63 25 b 66 23 69 21 72 21 b 74 19 75 19 75 19 b 77 8 75 -3 69 -16 b 62 -28 55 -40 46 -49 b 38 -58 30 -63 24 -64 z"},"n":{"x_min":0,"x_max":438,"ha":438,"o":"m 457 299 b 457 299 452 291 441 274 b 432 258 419 239 405 218 b 392 197 377 179 364 162 b 350 146 340 138 333 138 b 326 138 324 146 327 164 b 330 182 334 203 342 229 b 349 254 357 279 365 304 b 374 328 380 349 386 364 b 389 373 391 379 392 382 b 398 406 395 426 380 443 b 366 460 346 468 319 464 b 292 461 264 440 233 402 b 214 376 188 336 154 282 b 121 228 94 185 75 151 b 96 238 120 324 146 409 b 148 418 146 425 139 428 b 132 432 123 433 111 433 b 99 432 86 431 74 428 b 62 426 51 423 42 421 b 33 419 29 418 29 418 b 29 418 25 401 16 367 b 7 333 -2 294 -14 249 b -25 204 -36 162 -45 123 b -55 84 -61 59 -63 46 b -65 30 -60 18 -47 8 b -35 -1 -20 -5 -2 -3 b 16 -1 31 8 43 25 b 92 95 134 154 169 204 b 204 253 230 288 248 309 b 265 329 271 331 266 314 b 258 288 249 261 239 234 b 227 199 215 166 206 134 b 196 103 190 75 188 52 b 187 33 194 20 210 13 b 227 5 249 8 277 22 b 306 36 337 64 371 108 b 405 152 440 215 475 299 l 457 299 z"},"h":{"x_min":0,"x_max":438,"ha":438,"o":"m 458 299 b 458 299 452 291 442 274 b 432 258 420 239 406 218 b 392 197 378 179 365 162 b 351 146 340 138 333 138 b 327 138 325 146 328 164 b 331 182 335 203 343 229 b 350 254 357 279 366 304 b 374 328 381 349 386 364 b 390 373 392 379 393 382 b 399 406 395 426 381 443 b 367 460 346 468 320 464 b 293 461 265 440 234 402 b 222 386 205 361 183 327 b 162 293 141 259 120 225 b 99 190 83 164 72 145 b 95 240 122 347 153 468 b 184 588 208 677 224 733 b 227 742 225 749 218 752 b 211 755 201 757 189 756 b 178 756 166 754 153 752 b 140 750 130 747 121 745 b 112 743 107 742 107 742 b 107 742 99 707 82 638 b 64 569 44 489 22 398 b 0 308 -20 226 -38 153 b -55 80 -65 37 -68 22 b -69 12 -66 6 -59 3 b -52 0 -43 0 -32 1 b -21 2 -9 4 2 8 b 13 11 23 14 31 17 b 39 21 42 22 42 22 b 42 22 51 34 67 57 b 83 81 104 108 127 142 b 150 174 173 206 196 236 b 219 267 237 290 250 306 b 265 322 270 325 267 314 b 258 288 250 261 240 234 b 227 199 216 166 207 134 b 196 103 190 75 188 52 b 186 29 193 13 209 5 b 226 -3 248 0 276 15 b 305 30 336 60 371 105 b 406 151 440 215 475 299 l 458 299 z"},"z":{"x_min":0,"x_max":341,"ha":341,"o":"m -7 325 b 33 355 73 379 112 397 b 151 416 185 428 213 435 b 242 442 261 444 270 442 b 278 439 283 430 286 414 b 289 398 289 382 287 365 b 285 347 281 334 275 327 b 266 316 249 299 226 274 b 202 249 177 222 150 194 b 124 166 101 142 81 121 b 62 100 52 90 52 90 b 93 107 130 116 164 115 b 197 113 224 105 242 89 b 260 74 268 53 264 28 b 262 21 259 15 255 10 b 251 5 246 2 241 0 b 236 -3 232 -5 229 -6 b 225 -7 223 -7 223 -7 b 223 -7 222 -5 220 -1 b 217 3 212 9 206 14 b 200 20 190 25 179 30 b 167 34 152 37 135 38 b 117 39 95 37 69 31 b 43 26 14 17 -21 2 b -31 -1 -39 2 -42 11 b -46 21 -48 31 -47 43 b -47 56 -46 64 -43 70 b -34 82 -17 103 9 133 b 35 164 62 196 92 231 b 122 266 148 296 170 322 b 192 348 203 361 203 361 b 203 361 199 361 191 361 b 183 361 170 359 154 354 b 138 349 117 340 92 327 b 68 313 39 293 6 267 b 6 267 4 268 1 270 b -2 272 -5 275 -9 279 b -13 283 -16 287 -19 292 b -21 297 -21 303 -20 308 b -19 314 -14 319 -7 325 z"},"B":{"x_min":0,"x_max":539,"ha":539,"o":"m 34 601 b 38 621 47 645 63 672 b 79 699 100 725 125 747 b 150 770 178 785 209 791 b 240 797 271 789 305 767 b 325 750 334 726 333 691 b 332 658 322 621 304 582 b 287 542 264 507 237 475 b 210 442 182 419 151 406 b 151 406 152 404 153 399 b 154 395 156 390 159 383 b 161 377 164 372 167 366 b 171 360 175 356 180 354 b 185 351 190 351 197 353 b 203 356 211 361 221 367 b 234 376 250 386 269 395 b 287 404 306 409 326 410 b 346 410 364 403 382 387 b 401 367 410 340 407 307 b 404 274 394 240 375 204 b 356 168 333 137 304 110 b 274 83 243 67 209 60 b 171 53 147 56 138 69 b 129 82 130 100 140 122 b 149 145 163 168 179 191 b 196 215 210 234 222 249 b 227 256 231 261 233 264 b 238 271 239 277 238 284 b 236 291 232 294 226 297 b 219 299 212 296 203 291 b 195 285 180 271 157 250 b 134 228 111 201 88 167 b 101 239 117 322 137 415 b 156 508 175 583 193 637 b 195 645 193 650 187 653 b 181 656 172 657 162 658 b 151 658 140 657 128 656 b 117 655 107 653 100 652 b 92 650 88 650 88 650 b 88 650 82 628 70 584 b 59 540 45 486 29 423 b 14 360 -1 298 -15 237 b -29 175 -39 125 -44 87 b -45 78 -40 72 -30 69 b -20 66 -8 64 6 64 b 21 65 34 66 46 67 b 44 37 55 13 78 -4 b 101 -21 131 -31 168 -32 b 213 -31 256 -18 298 8 b 340 34 377 67 410 108 b 443 149 469 192 487 237 b 505 282 513 323 510 361 b 507 399 491 428 461 448 b 432 468 386 474 323 464 b 323 464 329 473 341 491 b 352 508 365 531 379 559 b 393 587 403 617 412 649 b 420 682 421 713 415 744 b 410 775 393 802 365 825 b 330 852 291 865 248 865 b 205 865 163 855 121 835 b 80 815 45 789 15 756 b -14 724 -33 688 -42 650 b -43 641 -41 634 -34 627 b -27 620 -19 614 -9 609 b 1 605 10 602 19 600 b 27 598 32 599 34 601 z"},"K":{"x_min":0,"x_max":632,"ha":632,"o":"m 70 452 b 78 446 87 444 97 446 b 106 448 116 451 125 456 b 134 460 141 465 147 469 b 153 474 156 476 156 476 b 136 518 129 560 136 603 b 143 646 156 683 175 716 b 194 750 211 773 228 786 b 244 799 251 797 250 779 b 236 673 215 563 188 450 b 162 336 137 239 113 159 b 90 78 79 38 79 38 b 79 38 83 36 91 32 b 100 28 110 24 123 20 b 135 15 147 11 160 7 b 172 4 183 2 192 3 b 201 3 206 6 207 13 b 220 93 236 180 255 274 b 260 230 271 183 288 132 b 305 82 332 34 369 -10 b 379 -20 393 -23 411 -21 b 428 -18 446 -11 464 -2 b 483 7 499 16 512 24 b 524 33 531 37 531 37 b 531 37 521 45 502 60 b 483 76 460 98 434 128 b 408 158 384 195 362 239 b 339 283 324 333 315 390 b 362 431 411 483 462 546 b 514 608 561 682 604 766 b 612 783 615 798 613 810 b 610 821 605 831 597 838 b 589 845 581 851 570 854 b 561 858 552 861 545 862 b 538 863 534 864 534 864 b 493 764 451 680 409 612 b 368 544 329 491 293 451 b 316 554 338 641 359 711 b 364 725 368 741 372 761 b 375 781 375 800 371 818 b 367 836 355 849 334 857 b 295 869 257 866 221 847 b 186 829 154 801 126 764 b 98 728 76 688 61 646 b 45 604 37 564 38 529 b 39 494 49 468 70 452 z"},"R":{"x_min":0,"x_max":524,"ha":524,"o":"m 89 361 b 74 298 60 237 46 177 b 32 117 21 68 13 31 b 11 21 14 13 21 8 b 28 4 38 1 49 0 b 61 0 73 0 84 1 b 97 2 107 4 116 5 b 124 7 128 8 128 8 b 128 8 129 23 130 52 b 132 82 138 128 149 190 b 153 161 163 129 177 96 b 192 63 214 37 243 18 b 273 -1 312 -4 362 8 b 377 13 390 19 399 27 b 410 35 417 43 423 52 b 429 61 433 68 436 74 b 438 80 439 83 439 83 b 425 77 406 74 382 75 b 358 76 332 86 304 104 b 276 122 248 154 221 200 b 270 188 316 196 360 227 b 405 257 443 300 476 356 b 507 412 529 472 541 536 b 553 600 550 660 532 714 b 515 770 479 812 424 840 b 386 859 345 868 300 866 b 255 865 210 853 166 831 b 122 808 83 774 48 730 b 28 704 11 675 -4 642 b -19 609 -27 575 -29 541 b -31 506 -22 473 -5 441 b 13 410 44 383 89 361 z m 385 784 b 427 750 449 706 454 653 b 458 600 450 546 430 491 b 410 437 384 389 352 348 b 319 308 287 283 254 272 b 221 263 195 276 174 313 b 192 387 217 477 250 581 b 252 588 250 593 244 596 b 237 599 229 601 218 601 b 208 601 197 601 186 600 b 174 598 165 597 157 596 b 149 594 145 593 145 593 b 145 593 143 583 137 562 b 132 540 125 512 117 477 b 95 503 86 533 88 568 b 91 603 102 638 122 672 b 141 707 166 737 196 762 b 226 787 257 803 291 809 b 324 815 355 807 385 784 z"},"T":{"x_min":0,"x_max":474,"ha":474,"o":"m 36 672 b 76 664 117 650 158 630 b 199 610 235 586 267 560 b 298 532 319 504 330 475 b 324 449 318 424 312 399 b 278 263 256 157 244 80 b 242 64 244 52 250 42 b 257 32 266 24 276 19 b 287 13 298 9 309 6 b 320 4 330 2 337 2 b 345 1 349 1 349 1 b 349 1 354 40 365 117 b 376 194 392 291 412 407 b 433 523 458 643 488 767 b 530 766 572 762 615 755 b 658 749 702 737 744 722 b 744 722 746 725 750 731 b 755 737 760 744 765 753 b 771 762 775 771 780 780 b 785 790 787 798 788 806 b 789 814 787 820 782 824 b 768 833 728 842 661 851 b 595 859 510 862 406 859 b 302 857 187 844 60 820 b 51 815 44 806 40 791 b 35 776 31 759 30 741 b 28 723 28 708 29 694 b 30 681 33 673 36 672 z m 390 764 b 382 711 370 649 353 577 b 347 590 335 606 319 626 b 302 646 280 666 251 683 b 223 700 188 711 146 717 b 166 724 197 732 240 742 b 282 751 333 759 390 764 z"},"P":{"x_min":0,"x_max":455,"ha":455,"o":"m -7 539 b -9 569 2 604 25 641 b 48 678 77 712 112 743 b 148 773 184 794 220 805 b 256 815 286 808 310 784 b 344 745 362 699 364 645 b 365 591 356 538 336 485 b 316 432 292 387 262 350 b 231 313 202 292 173 286 b 145 281 122 298 105 339 b 122 408 146 489 175 581 b 177 588 175 593 168 596 b 162 599 153 601 143 601 b 132 601 121 601 110 600 b 99 598 89 597 82 596 b 73 594 69 593 69 593 b 69 593 64 571 54 527 b 43 483 30 430 15 367 b 0 304 -15 242 -29 180 b -43 119 -54 69 -62 31 b -64 21 -62 13 -55 8 b -47 4 -38 1 -26 0 b -15 0 -3 0 9 1 b 21 2 32 4 40 5 b 49 7 53 8 53 8 b 53 8 53 16 54 32 b 54 48 56 73 60 107 b 64 140 71 183 82 234 b 125 201 168 189 212 200 b 257 210 298 236 336 276 b 374 317 406 365 431 422 b 457 479 472 536 479 594 b 485 652 478 705 458 751 b 439 797 403 831 351 851 b 305 866 256 870 205 861 b 153 853 104 834 58 807 b 11 779 -27 745 -58 704 b -89 663 -106 618 -109 569 b -110 553 -107 541 -101 534 b -94 527 -85 523 -75 522 b -65 521 -55 523 -44 525 b -34 528 -25 531 -18 535 b -10 538 -7 539 -7 539 z"},"|":{"x_min":0,"x_max":136,"ha":136,"o":"m 105 760 b 99 765 92 768 85 769 b 78 770 71 769 65 766 b 59 764 53 760 47 757 b 42 753 38 750 35 747 b 32 744 30 743 30 743 b 30 743 30 707 29 636 b 29 564 28 482 27 390 b 26 297 25 214 25 142 b 25 69 25 28 25 18 b 26 13 30 10 39 8 b 47 7 68 11 102 21 b 102 193 102 331 104 434 b 105 537 107 608 109 649 b 109 661 109 672 110 682 b 111 729 109 754 105 760 z"},"t":{"x_min":0,"x_max":199,"ha":199,"o":"m 207 299 b 207 299 202 291 193 274 b 184 257 172 239 159 218 b 146 197 132 178 118 162 b 104 146 92 138 83 138 b 76 139 76 157 82 192 b 88 227 99 271 112 324 b 126 376 142 431 158 488 b 189 492 215 498 234 505 b 237 507 239 509 241 513 b 244 518 245 521 246 526 b 247 530 248 534 247 536 b 245 542 229 543 201 541 b 192 540 183 540 172 539 b 200 631 219 696 231 733 b 233 742 231 749 225 752 b 218 755 208 756 196 756 b 185 755 172 754 160 752 b 147 750 137 747 127 745 b 119 743 114 741 114 741 b 114 741 109 723 99 685 b 89 647 76 600 61 543 b 43 545 25 549 6 553 b -2 554 -7 550 -9 542 b -11 534 -10 524 -8 515 b -6 504 -4 498 0 493 b 5 488 20 485 45 483 b 21 394 -1 311 -21 233 b -41 155 -52 108 -55 92 b -57 62 -52 40 -40 23 b -27 7 -12 0 5 1 b 37 3 71 30 110 83 b 149 135 187 208 224 299 l 207 299 z"},"M":{"x_min":0,"x_max":797,"ha":797,"o":"m 43 386 b 65 405 81 426 92 448 b 103 471 112 498 122 529 b 128 550 136 575 146 603 b 156 630 169 661 186 696 b 202 729 219 753 237 766 b 216 667 192 545 163 403 b 134 262 113 154 99 80 b 96 61 98 46 105 34 b 113 22 123 13 134 7 b 146 1 157 -1 167 -2 b 177 -2 183 0 186 3 b 187 6 192 19 201 41 b 222 90 251 161 290 253 b 328 345 365 432 399 514 b 434 597 456 647 464 666 b 467 671 466 666 462 650 b 458 634 452 611 444 580 b 424 510 404 431 382 341 b 360 252 350 187 351 145 b 352 133 355 125 361 119 b 366 113 373 109 380 107 b 388 105 396 104 403 104 b 411 104 417 105 422 106 b 427 107 430 107 430 107 l 676 513 b 674 510 668 494 656 463 b 645 432 631 394 617 349 b 602 304 588 257 577 210 b 566 163 561 122 560 85 b 560 50 568 26 585 15 b 593 8 604 5 616 6 b 629 6 642 8 655 11 b 667 15 679 18 688 21 b 696 25 701 27 701 27 b 701 27 700 31 698 38 b 696 45 695 58 694 76 b 693 94 695 119 698 150 b 701 182 707 222 717 270 b 726 318 740 376 759 443 b 777 511 802 590 832 680 b 837 694 837 706 833 714 b 828 723 821 729 812 733 b 803 738 793 741 783 742 b 772 743 764 744 756 744 b 749 744 745 743 745 743 l 480 341 b 476 337 476 353 482 387 b 488 421 497 463 509 515 b 521 566 533 615 545 663 b 557 710 567 745 574 768 b 577 780 576 790 571 795 b 566 801 559 805 549 806 b 540 808 530 808 520 807 b 509 806 500 805 493 803 b 485 801 481 801 481 801 b 481 801 470 780 445 739 b 421 698 392 648 358 589 b 324 530 291 470 258 411 b 258 411 266 440 282 497 b 298 555 323 653 357 792 b 360 811 356 826 345 838 b 334 851 320 859 302 863 b 285 867 270 866 256 859 b 238 850 216 832 192 805 b 167 777 141 737 111 682 b 99 660 88 639 79 619 b 53 566 29 524 6 493 b -18 461 -49 437 -89 421 b -89 420 -88 419 -88 419 b -84 412 -77 402 -66 389 b -55 375 -41 367 -22 363 b -4 359 18 367 43 386 z"},"g":{"x_min":0,"x_max":396,"ha":396,"o":"m 411 303 b 391 250 366 202 336 158 b 307 114 284 87 268 77 b 285 146 302 210 318 270 b 334 329 347 374 356 405 b 360 420 353 431 335 438 b 318 444 300 445 279 441 b 259 438 246 428 240 413 b 240 413 238 406 234 391 b 233 394 232 396 231 399 b 216 435 197 453 175 455 b 152 457 127 447 102 426 b 77 405 53 379 31 347 b 9 314 -9 281 -22 249 b -43 192 -53 144 -50 105 b -48 66 -37 37 -18 20 b 0 2 23 -3 49 3 b 69 10 90 26 110 50 b 131 75 150 102 167 132 b 156 87 145 43 133 -1 b 118 -9 103 -16 88 -23 b 44 -45 2 -67 -37 -90 b -76 -114 -110 -142 -139 -174 b -167 -207 -188 -247 -201 -296 b -214 -356 -211 -408 -192 -452 b -173 -496 -145 -528 -108 -549 b -72 -569 -35 -574 3 -564 b 26 -560 49 -542 72 -512 b 95 -482 120 -429 146 -354 b 174 -277 206 -168 243 -25 b 292 20 329 67 356 117 b 384 166 409 227 432 297 l 411 303 z m 103 145 b 103 145 102 145 100 143 b 98 142 95 141 92 140 b 89 139 86 138 83 137 b 80 137 77 138 74 139 b 71 141 69 144 68 148 b 66 153 66 160 67 168 b 68 178 73 195 81 220 b 88 245 99 271 113 299 b 127 327 144 351 164 370 b 176 382 185 387 190 385 b 195 383 199 376 203 365 b 211 343 211 319 203 293 b 194 268 182 244 167 222 b 151 200 136 181 123 167 b 109 152 103 145 103 145 z m 71 -252 b 54 -321 33 -378 8 -424 b -16 -469 -39 -498 -61 -509 b -73 -513 -86 -506 -102 -489 b -118 -471 -130 -447 -138 -416 b -146 -384 -145 -350 -134 -312 b -124 -275 -98 -239 -56 -204 b -16 -173 24 -147 63 -128 b 78 -120 93 -111 107 -103 b 91 -168 79 -218 71 -252 z"},"j":{"x_min":0,"x_max":185,"ha":185,"o":"m 200 303 b 180 250 155 202 125 158 b 96 114 73 87 57 77 b 74 146 91 210 107 270 b 123 329 136 374 146 405 b 149 420 142 431 125 438 b 108 444 89 445 69 441 b 48 438 35 428 29 413 b 29 413 24 394 14 356 b 4 318 -7 273 -20 223 b -33 171 -45 125 -56 82 b -67 39 -74 12 -78 -1 b -93 -9 -108 -16 -123 -23 b -167 -45 -208 -67 -248 -90 b -287 -114 -321 -142 -350 -174 b -378 -207 -399 -247 -412 -296 b -425 -356 -422 -408 -403 -452 b -383 -496 -355 -528 -319 -549 b -283 -569 -246 -574 -208 -564 b -185 -560 -162 -542 -139 -512 b -116 -482 -91 -429 -64 -354 b -37 -277 -5 -168 32 -25 b 81 20 118 67 146 117 b 173 166 198 227 222 297 l 200 303 z m -140 -252 b -157 -321 -178 -378 -202 -424 b -227 -469 -250 -498 -272 -509 b -284 -513 -297 -506 -313 -489 b -329 -471 -341 -447 -349 -416 b -357 -384 -356 -350 -345 -312 b -334 -275 -309 -239 -267 -204 b -227 -173 -187 -147 -148 -128 b -132 -120 -118 -111 -104 -103 b -120 -168 -132 -218 -140 -252 z m 60 524 b 63 534 70 544 79 557 b 89 569 100 578 113 585 b 126 592 140 592 154 586 b 167 578 171 564 167 547 b 162 530 153 514 141 500 b 128 485 117 478 106 479 b 91 480 79 486 69 494 b 60 502 56 513 60 524 z"},"i":{"x_min":0,"x_max":192,"ha":192,"o":"m 211 299 b 211 299 207 291 198 274 b 188 257 177 239 164 218 b 150 197 137 178 123 162 b 109 146 97 138 87 138 b 80 139 77 147 80 165 b 82 182 86 204 94 230 b 102 257 111 284 120 312 b 132 349 142 380 148 406 b 151 422 144 433 126 439 b 109 446 91 447 71 443 b 51 439 38 430 32 415 b 32 415 28 400 20 372 b 12 343 3 309 -7 270 b -18 231 -27 195 -35 161 b -43 127 -48 104 -50 92 b -52 63 -47 41 -34 26 b -21 12 -6 5 11 6 b 42 8 77 35 116 85 b 154 136 192 208 229 299 l 211 299 z m 70 528 b 73 538 80 548 89 561 b 99 573 110 582 124 589 b 136 596 150 596 164 589 b 177 581 181 568 176 551 b 172 534 163 518 151 503 b 139 489 127 481 117 482 b 101 484 89 490 79 498 b 69 506 66 517 70 528 z"},"y":{"x_min":0,"x_max":392,"ha":392,"o":"m 407 303 b 387 250 362 202 333 158 b 303 114 280 87 264 77 b 282 146 298 210 314 270 b 331 329 343 374 353 405 b 356 420 349 431 332 438 b 315 444 296 445 276 441 b 255 438 242 428 236 413 b 236 413 235 407 231 396 b 229 383 225 368 219 348 b 209 326 196 299 179 267 b 162 234 145 205 127 180 b 110 154 97 141 85 140 b 78 141 76 150 78 170 b 81 189 86 213 95 242 b 103 271 112 300 122 330 b 134 368 143 399 149 424 b 151 433 149 439 142 442 b 135 446 125 447 114 447 b 102 446 90 445 78 443 b 65 440 55 438 46 436 b 38 433 33 432 33 432 b 33 432 29 417 21 387 b 13 356 3 321 -7 280 b -18 239 -28 201 -36 166 b -45 130 -50 106 -52 93 b -54 64 -49 42 -37 24 b -25 7 -10 0 7 0 b 41 6 72 28 101 66 b 130 103 157 149 183 205 b 170 157 159 113 149 75 b 139 36 133 11 130 -1 b 115 -9 100 -16 85 -23 b 41 -45 -1 -67 -41 -90 b -80 -114 -114 -142 -143 -174 b -171 -207 -192 -247 -204 -296 b -218 -356 -215 -408 -195 -452 b -176 -496 -148 -528 -112 -549 b -75 -569 -38 -574 0 -564 b 23 -560 46 -542 68 -512 b 91 -482 116 -429 143 -354 b 170 -277 203 -168 239 -25 b 288 20 326 67 353 117 b 380 166 406 227 429 297 l 407 303 z m 67 -252 b 50 -321 29 -378 5 -424 b -20 -469 -42 -498 -64 -509 b -76 -513 -90 -506 -105 -489 b -121 -471 -133 -447 -142 -416 b -150 -384 -148 -350 -138 -312 b -127 -275 -101 -239 -60 -204 b -20 -173 21 -147 59 -128 b 75 -120 90 -111 104 -103 b 87 -168 76 -218 67 -252 z"},"@":{"x_min":0,"x_max":665,"ha":665,"o":"m 470 82 b 470 82 470 82 470 82 b 470 82 470 82 470 82 b 478 88 495 109 522 144 b 550 178 576 220 601 270 b 626 320 639 372 641 425 b 641 456 631 483 614 506 b 596 529 572 548 541 563 b 504 581 461 585 411 576 b 360 566 309 543 256 508 b 219 484 183 452 149 414 b 114 375 86 331 63 280 b 41 230 28 175 26 116 b 25 31 50 -26 101 -56 b 115 -64 130 -70 146 -74 b 162 -77 178 -79 194 -79 b 218 -79 240 -76 261 -71 b 283 -66 300 -62 313 -57 b 327 -52 335 -49 336 -48 b 336 -48 338 -46 340 -42 b 343 -38 346 -33 349 -26 b 352 -20 354 -13 355 -6 b 357 1 356 8 354 14 b 353 20 348 25 340 28 b 338 28 333 25 323 19 b 312 11 295 1 275 -9 b 254 -19 231 -26 206 -29 b 181 -32 155 -27 128 -14 b 106 -3 89 13 78 34 b 66 56 61 85 61 122 b 62 176 74 226 94 272 b 115 318 142 359 173 395 b 205 430 237 459 271 482 b 319 513 364 533 408 542 b 452 551 490 548 521 533 b 548 520 569 503 584 484 b 599 465 606 442 606 416 b 605 380 595 342 576 302 b 558 262 538 227 517 198 b 496 169 482 155 476 155 b 469 155 468 167 474 192 b 479 218 487 247 497 279 b 507 312 517 341 526 367 b 534 390 538 405 540 411 b 541 419 535 426 523 432 b 511 438 498 441 484 440 b 470 439 459 432 453 418 b 453 418 451 412 446 400 b 441 389 435 373 427 354 b 425 367 421 380 416 395 b 402 427 385 444 364 445 b 343 447 321 438 298 419 b 275 400 253 376 233 346 b 212 317 196 287 184 256 b 165 205 156 161 158 125 b 161 89 170 63 188 47 b 205 31 226 25 250 32 b 268 38 286 52 305 74 b 323 97 341 121 356 148 b 349 121 344 97 342 77 b 341 62 347 51 357 43 b 368 36 383 35 403 40 b 422 45 445 59 470 82 z m 299 162 b 299 162 298 161 296 160 b 294 159 292 158 289 157 b 286 156 283 155 280 155 b 277 154 274 155 272 157 b 270 158 268 161 267 165 b 265 169 265 175 266 183 b 267 192 271 208 278 230 b 285 253 295 277 308 303 b 321 328 336 350 354 368 b 366 379 374 383 378 382 b 383 380 387 374 391 363 b 398 343 397 321 390 298 b 382 274 371 253 357 232 b 343 211 329 195 317 182 b 305 168 299 162 299 162 z"},".":{"x_min":0,"x_max":146,"ha":146,"o":"m 106 55 b 95 61 83 60 73 55 b 62 49 53 41 44 31 b 37 21 31 12 29 4 b 26 -5 28 -14 36 -21 b 44 -27 55 -32 67 -34 b 76 -34 85 -28 96 -17 b 106 -4 113 9 117 23 b 120 38 117 48 106 55 z"},"p":{"x_min":0,"x_max":394,"ha":394,"o":"m 253 452 b 227 443 202 420 176 385 b 150 349 128 314 110 280 b 125 338 137 381 146 407 b 148 416 146 422 139 426 b 132 429 123 431 111 430 b 99 430 86 428 74 426 b 62 424 51 421 42 419 b 33 417 29 416 29 416 b 29 416 18 370 -5 280 b -28 189 -54 85 -84 -33 b -113 -151 -140 -257 -163 -351 b -186 -445 -198 -500 -201 -516 b -202 -532 -194 -543 -177 -551 b -160 -558 -142 -560 -123 -557 b -105 -554 -94 -546 -90 -532 b -89 -521 -80 -483 -64 -418 b -49 -353 -30 -274 -7 -183 b 15 -92 38 0 61 90 b 63 80 67 68 71 56 b 86 21 104 2 127 0 b 150 -1 174 8 200 29 b 225 50 249 77 271 109 b 293 141 311 174 324 207 b 346 264 355 312 353 351 b 350 390 339 418 320 436 b 302 454 279 459 253 452 z m 138 85 b 126 73 117 68 112 70 b 107 72 103 79 99 90 b 91 113 91 137 100 162 b 108 187 120 211 136 233 b 151 256 166 274 179 289 b 192 303 199 311 199 311 b 199 311 200 311 202 312 b 204 313 207 314 210 316 b 213 317 216 318 219 318 b 223 318 226 318 229 316 b 231 314 233 312 234 307 b 236 302 236 296 235 287 b 234 278 229 260 222 236 b 214 211 203 185 189 157 b 175 128 158 105 138 85 z"},"X":{"x_min":0,"x_max":603,"ha":603,"o":"m 495 158 b 484 155 475 167 468 194 b 461 221 456 257 452 302 b 447 348 443 398 439 452 b 439 457 439 461 438 465 b 443 473 448 480 452 487 b 483 539 513 585 541 628 b 568 671 594 706 617 732 b 641 759 661 774 678 777 b 678 777 680 780 682 785 b 684 791 686 797 688 805 b 689 812 690 820 690 829 b 690 837 688 844 684 851 b 680 857 672 862 662 864 b 644 868 623 858 599 834 b 576 812 550 779 521 737 b 493 695 462 647 429 594 b 423 657 416 711 407 758 b 397 804 385 834 369 848 b 367 851 359 854 348 859 b 336 864 322 867 304 868 b 286 869 267 864 246 854 b 225 843 203 824 182 796 b 160 768 139 728 120 675 b 103 626 89 589 78 565 b 67 541 55 524 41 515 b 27 506 7 501 -18 499 b -23 479 -20 460 -8 443 b 3 426 20 416 41 413 b 62 410 85 420 109 443 b 125 460 138 483 148 512 b 159 540 168 571 176 603 b 184 636 193 667 204 695 b 215 725 226 747 236 759 b 246 772 254 778 261 779 b 268 779 272 776 274 770 b 280 746 285 712 290 670 b 293 627 298 580 302 527 b 305 490 308 453 311 415 b 274 360 234 308 193 258 b 151 208 107 165 62 128 b 17 91 -31 65 -80 48 b -80 48 -79 46 -78 42 b -77 38 -75 33 -72 27 b -68 21 -63 16 -56 10 b -49 5 -40 1 -28 -2 b -16 -5 -1 -5 17 -3 b 50 2 84 18 119 45 b 153 72 188 106 223 148 b 257 190 291 237 325 287 b 331 233 339 184 350 140 b 359 97 372 62 387 37 b 402 11 420 0 441 1 b 463 4 486 22 511 55 b 536 88 561 128 585 176 b 609 224 631 272 650 321 l 625 330 b 600 276 576 236 552 208 b 528 179 509 163 495 158 z"},"*":{"x_min":0,"x_max":211,"ha":211,"o":"m 81 638 b 83 640 86 642 89 644 b 89 645 90 645 90 645 b 92 641 93 638 95 634 b 97 629 98 625 100 619 b 100 619 101 619 101 619 b 104 610 108 605 112 603 b 117 601 122 601 127 603 b 132 605 137 607 142 611 b 146 615 149 618 152 622 b 155 625 157 626 157 626 b 157 626 156 626 154 627 b 152 627 150 629 148 631 b 145 633 142 635 139 639 b 136 643 133 647 130 654 b 129 656 127 659 126 662 b 127 662 129 663 130 664 b 132 665 135 666 137 667 b 140 668 143 669 146 671 b 149 672 152 674 155 675 b 164 680 170 684 175 688 b 180 693 183 697 185 701 b 186 705 187 709 186 712 b 185 716 184 719 183 722 b 181 725 180 727 178 728 b 177 729 176 730 176 730 b 176 730 172 727 165 720 b 157 713 145 706 128 696 b 128 696 127 696 127 695 b 127 695 126 695 126 695 l 126 696 b 127 698 129 701 130 704 b 132 709 134 714 136 720 b 136 720 136 721 137 721 b 140 730 142 737 141 742 b 141 747 140 750 137 753 b 134 755 131 757 127 757 b 124 758 120 758 116 757 b 112 757 109 756 107 755 b 104 755 103 754 103 754 b 103 754 103 750 103 741 b 103 733 100 720 95 704 b 95 703 94 701 94 700 b 93 698 93 697 92 695 b 92 695 92 695 91 696 b 91 696 91 696 91 696 b 86 701 82 705 78 710 b 73 715 68 718 63 718 b 58 718 54 717 49 715 b 45 712 42 709 39 705 b 35 701 33 698 31 695 b 29 692 28 690 28 690 b 28 690 32 689 38 687 b 44 684 53 678 63 668 b 63 668 64 667 65 667 b 65 666 66 666 66 665 b 67 665 68 664 68 664 b 68 663 68 663 68 663 b 67 662 66 662 65 661 b 64 661 64 661 64 660 b 64 660 64 660 64 660 b 57 654 49 648 42 643 b 35 637 30 632 28 628 b 25 624 24 620 25 616 b 25 612 27 609 29 606 b 31 604 34 602 37 600 b 40 598 42 597 44 596 b 46 595 47 594 47 594 b 47 594 48 596 49 600 b 51 604 54 609 59 615 b 64 622 71 629 81 638 z"},"Y":{"x_min":0,"x_max":679,"ha":679,"o":"m 722 323 l 698 350 b 667 319 632 298 593 286 b 607 328 624 385 644 458 b 664 532 680 600 691 662 b 693 671 690 678 684 683 b 678 688 669 693 659 696 b 649 699 639 701 628 702 b 618 704 609 704 602 704 b 594 705 590 705 590 705 b 576 670 556 631 532 586 b 508 541 482 498 455 456 b 428 414 402 380 377 355 b 353 331 332 321 316 327 b 298 336 291 356 292 388 b 293 420 302 458 317 501 b 332 544 351 587 373 630 b 396 672 418 709 442 740 b 466 771 487 790 506 797 b 507 797 507 801 506 808 b 505 814 502 822 497 831 b 493 839 485 847 476 854 b 467 860 455 863 440 864 b 438 864 437 864 435 864 b 422 865 406 863 387 859 b 369 855 347 845 322 827 b 298 809 271 780 241 739 b 195 673 153 628 116 604 b 78 580 35 568 -13 569 b -13 569 -13 568 -13 567 b -13 560 -10 548 -6 533 b -2 519 7 505 21 495 b 36 484 57 481 86 486 b 107 491 128 503 148 522 b 169 542 188 564 207 591 b 226 618 244 644 260 670 b 278 699 294 722 309 741 b 323 760 334 768 344 767 b 326 739 306 704 284 661 b 262 619 241 573 223 524 b 205 476 193 429 187 383 b 181 338 185 300 199 268 b 213 236 241 215 284 206 b 285 205 287 205 288 206 b 288 206 289 206 289 206 b 272 188 259 165 251 133 b 245 105 248 79 258 57 b 269 34 286 18 309 8 b 333 -2 361 -1 394 9 b 424 18 455 40 484 73 b 515 107 544 159 572 228 b 598 235 624 246 649 260 b 674 275 698 296 722 323 z m 316 107 b 315 138 320 160 332 174 b 344 188 360 198 381 202 b 402 207 427 209 454 211 b 457 211 459 211 462 211 b 427 151 395 112 365 95 b 335 77 319 82 316 107 z m 487 266 b 481 265 473 264 464 263 b 449 262 433 260 415 257 b 396 254 378 250 361 244 b 398 276 433 317 463 365 b 493 414 518 458 536 497 b 553 537 562 556 562 556 b 554 518 542 467 527 405 b 512 342 499 296 487 266 z"},"c":{"x_min":0,"x_max":306,"ha":306,"o":"m 175 299 b 190 303 204 313 217 328 b 230 343 240 360 245 378 b 250 396 249 411 240 424 b 231 438 211 445 181 445 b 141 443 103 426 68 392 b 34 358 6 317 -15 269 b -37 221 -46 174 -46 129 b -45 83 -29 49 1 25 b 53 -10 107 -3 164 47 b 221 98 281 181 343 297 l 320 314 b 320 314 313 302 298 277 b 283 252 264 225 241 193 b 217 163 192 137 166 115 b 140 94 115 84 91 88 b 72 94 63 108 62 132 b 62 156 67 182 78 212 b 88 241 102 268 118 290 b 126 302 132 309 137 312 b 141 316 144 317 146 316 b 149 315 151 313 153 310 b 155 306 157 303 161 300 b 164 298 169 297 175 299 z"},"!":{"x_min":0,"x_max":271,"ha":271,"o":"m 95 78 b 85 83 75 83 66 78 b 57 73 48 66 42 57 b 35 49 30 41 28 35 b 25 26 28 19 35 13 b 42 7 50 3 61 2 b 68 1 77 7 85 17 b 94 27 100 39 104 51 b 106 63 104 72 95 78 z m 107 134 b 121 205 135 275 151 344 b 167 413 183 477 198 534 b 213 595 225 645 233 684 b 242 722 244 744 240 749 b 231 756 222 760 211 761 b 202 761 192 761 183 758 b 173 756 166 753 160 750 b 153 748 150 746 150 746 b 150 746 145 716 133 657 b 122 598 109 529 95 452 b 80 375 67 306 56 246 b 44 185 39 151 38 143 b 38 138 40 135 44 134 b 49 132 55 131 62 130 b 68 130 75 130 83 131 b 89 131 95 132 100 133 b 105 134 107 134 107 134 z"},"/":{"x_min":0,"x_max":474,"ha":474,"o":"m 386 753 b 344 655 298 560 248 468 b 198 376 153 296 113 228 b 85 181 64 143 48 114 b 32 84 25 67 27 62 b 31 50 37 42 45 36 b 52 30 60 26 67 23 b 75 21 82 20 86 20 b 92 19 95 19 95 19 b 95 19 112 53 147 120 b 182 187 222 264 267 351 b 312 438 353 515 388 584 b 423 652 442 691 447 701 b 449 706 448 710 444 716 b 441 721 436 725 430 729 b 423 734 417 738 410 742 b 403 745 398 748 393 750 b 388 752 386 753 386 753 z"},"[":{"x_min":0,"x_max":433,"ha":433,"o":"m 26 3 b 32 -3 42 -6 55 -7 b 68 -7 84 -7 104 -5 b 122 -4 143 -2 167 -2 b 190 -1 217 -2 248 -5 b 250 -5 252 -3 254 2 b 256 7 258 13 260 20 b 261 27 263 35 264 42 b 265 49 266 56 266 61 b 267 66 267 68 267 68 b 267 68 259 67 243 64 b 226 62 206 60 181 58 b 157 55 131 54 105 54 b 119 146 136 234 156 320 b 175 406 194 482 210 548 b 227 611 238 659 244 690 b 262 692 283 693 307 693 b 332 694 358 693 389 690 b 392 690 394 692 396 697 b 398 702 399 708 401 715 b 403 723 404 730 405 737 b 406 745 407 751 407 756 b 408 761 408 764 408 764 b 408 764 395 762 368 758 b 342 754 311 751 276 750 b 241 748 208 750 180 755 b 180 755 172 719 157 648 b 142 577 125 495 105 402 b 86 310 69 227 54 154 b 39 82 31 40 29 30 b 29 30 29 29 29 28 b 27 22 26 17 25 12 b 25 7 25 4 26 3 z"},"6":{"x_min":0,"x_max":475,"ha":475,"o":"m 397 391 b 365 395 333 389 301 373 b 269 358 239 339 212 316 b 185 294 162 273 143 255 b 132 245 124 237 117 231 b 122 256 136 288 160 328 b 184 367 213 407 248 446 b 282 486 318 518 354 542 b 391 565 424 574 454 567 b 454 567 456 571 460 578 b 465 585 469 594 474 604 b 479 615 482 626 484 637 b 485 648 484 658 479 667 b 474 675 465 680 450 682 b 428 685 398 676 360 656 b 323 635 283 607 241 571 b 198 534 158 493 121 447 b 84 400 55 353 33 303 b 11 253 2 205 6 158 b 10 111 31 69 70 32 b 103 3 138 -9 177 -5 b 215 0 252 14 290 40 b 327 66 360 97 389 134 b 418 171 440 208 454 246 b 468 283 471 315 464 342 b 456 369 434 385 397 391 z m 179 55 b 160 53 145 59 133 73 b 122 86 116 103 117 123 b 138 155 167 189 203 226 b 238 262 273 291 309 313 b 343 335 370 341 389 331 b 398 323 398 306 388 279 b 377 252 361 222 337 189 b 314 156 289 127 261 101 b 232 75 205 60 179 55 z"},"r":{"x_min":0,"x_max":270,"ha":270,"o":"m 292 309 b 281 283 265 254 244 223 b 223 191 201 164 180 139 b 158 114 141 100 128 95 b 116 90 113 101 121 128 b 127 153 137 179 151 207 b 164 234 178 261 193 287 b 218 330 235 368 247 399 b 252 421 245 435 224 440 b 204 446 178 448 147 448 b 132 449 117 449 102 451 b 108 466 114 484 119 504 b 125 524 125 542 122 557 b 119 571 107 579 86 578 b 56 574 32 559 15 530 b -2 496 -4 472 8 456 b 21 440 40 431 64 427 b 49 399 31 365 11 323 b -10 282 -30 240 -51 199 b -71 157 -88 122 -102 93 b -116 64 -123 50 -123 50 l -69 15 b -65 39 -51 80 -29 137 b -6 195 18 252 43 311 b 62 357 78 395 89 424 b 104 423 116 422 125 423 b 135 423 140 424 140 424 b 140 424 134 412 122 389 b 110 365 96 336 79 301 b 63 266 48 230 34 194 b 20 158 11 125 6 98 b 2 70 6 49 18 35 b 29 20 44 10 61 6 b 79 1 94 0 107 2 b 130 9 159 39 195 90 b 231 141 269 212 306 304 l 292 309 z m 77 451 b 77 451 75 451 71 451 b 68 452 63 453 59 455 b 55 456 50 458 47 461 b 43 464 41 468 40 473 b 40 480 43 491 49 503 b 55 515 62 526 71 536 b 79 545 86 551 92 552 b 98 553 100 547 99 533 b 94 504 90 483 84 470 b 79 457 77 451 77 451 z"},"2":{"x_min":0,"x_max":411,"ha":411,"o":"m 152 99 b 152 99 166 115 194 146 b 221 177 253 217 291 267 b 328 316 362 368 393 424 b 425 480 446 534 457 584 b 467 636 459 678 434 713 b 412 737 381 748 342 744 b 303 741 267 728 232 705 b 198 683 177 654 169 620 b 168 611 168 603 171 595 b 174 587 177 581 181 576 b 186 570 189 566 193 562 b 196 560 198 558 198 558 b 211 581 228 602 250 622 b 271 643 293 657 314 666 b 336 675 354 674 366 662 b 382 645 384 617 372 580 b 360 542 340 499 311 451 b 282 402 249 354 212 305 b 175 256 140 211 105 172 b 70 132 41 102 18 81 b 10 73 5 65 3 57 b 1 49 1 41 3 34 b 6 26 9 20 13 14 b 17 8 21 3 24 0 b 27 -3 29 -5 29 -5 b 29 -5 39 -3 58 2 b 78 7 104 12 135 17 b 167 21 203 24 242 25 b 258 26 272 25 284 23 b 296 21 306 19 313 16 b 321 13 327 9 331 6 b 335 3 338 0 340 -2 b 341 -4 342 -5 342 -5 b 342 -5 345 -3 350 0 b 356 2 362 7 369 13 b 375 19 381 25 386 33 b 390 41 392 50 391 60 b 388 75 378 87 361 94 b 345 102 325 106 302 108 b 278 109 255 109 233 108 b 210 106 191 104 176 102 b 160 100 152 99 152 99 z"},"{":{"x_min":0,"x_max":398,"ha":398,"o":"m 215 1 b 224 4 230 8 235 12 b 240 17 243 22 245 27 b 247 32 248 38 248 42 b 248 47 247 51 247 54 b 246 57 246 59 246 59 b 232 48 220 48 208 57 b 197 66 190 85 187 115 b 184 145 188 185 199 235 b 203 257 205 275 202 291 b 200 307 195 320 189 330 b 183 341 175 349 168 355 b 161 361 154 365 148 368 b 143 371 140 372 140 372 b 140 372 145 374 155 378 b 165 382 176 389 189 399 b 202 409 214 423 226 441 b 237 459 246 481 250 508 b 262 584 281 636 304 665 b 328 694 348 700 363 685 b 363 685 364 686 366 689 b 368 692 369 696 371 701 b 373 706 374 711 374 716 b 374 722 373 727 370 731 b 367 736 362 739 354 742 b 329 750 307 746 289 730 b 270 714 254 691 240 663 b 227 633 214 603 203 571 b 193 543 183 518 172 495 b 162 472 150 456 138 446 b 111 424 89 408 72 398 b 55 387 43 380 36 377 b 28 374 24 372 24 372 b 24 372 27 370 34 367 b 40 363 50 356 62 346 b 75 335 91 319 110 298 b 119 288 124 271 126 249 b 128 226 128 201 128 172 b 127 141 129 110 131 81 b 134 52 142 29 154 13 b 167 -2 187 -6 215 1 z"},"9":{"x_min":0,"x_max":449,"ha":449,"o":"m 429 658 b 425 666 417 674 407 683 b 396 692 381 698 363 700 b 344 703 321 698 293 688 b 260 673 229 649 200 615 b 170 581 146 542 125 499 b 106 456 94 414 90 373 b 86 333 93 298 111 271 b 129 243 161 227 207 223 b 228 222 247 228 263 239 b 280 250 295 263 307 278 b 319 293 329 307 336 319 b 342 332 346 337 346 337 b 343 326 337 306 329 277 b 320 248 308 216 293 183 b 279 149 262 120 242 94 b 222 69 200 55 175 51 b 144 48 123 57 111 76 b 100 94 96 115 98 137 b 101 159 107 174 117 182 b 117 182 115 183 110 185 b 106 187 100 189 93 191 b 86 193 79 193 71 193 b 62 192 55 189 47 185 b 40 180 33 171 27 160 b 9 120 6 86 18 57 b 29 28 50 7 81 -6 b 111 -20 145 -23 183 -17 b 222 -10 258 9 294 41 b 326 72 353 113 375 165 b 397 216 416 272 431 331 b 446 390 459 446 470 500 b 479 540 486 575 494 605 b 501 635 509 657 517 670 b 517 670 514 670 507 671 b 501 672 494 673 484 673 b 475 673 465 672 456 670 b 446 668 437 664 429 658 z m 375 437 b 375 437 369 428 357 412 b 346 396 331 377 313 357 b 295 336 277 319 258 305 b 240 291 223 286 207 289 b 188 295 179 313 180 343 b 181 373 189 408 204 446 b 219 485 238 521 261 553 b 285 586 309 608 334 620 b 360 632 384 626 406 602 b 406 601 404 592 401 575 b 397 559 394 540 390 519 b 386 497 383 478 379 461 b 376 445 375 437 375 437 z"}," ":{"x_min":0,"x_max":248,"ha":248,"o":""},"I":{"x_min":0,"x_max":286,"ha":286,"o":"m 35 454 b 43 448 52 446 62 448 b 71 450 81 453 89 458 b 99 462 106 467 112 471 b 118 476 121 478 121 478 b 101 520 94 562 101 604 b 107 647 121 685 140 718 b 159 751 176 775 192 788 b 209 801 216 799 215 781 b 201 675 180 565 153 452 b 126 338 102 241 78 161 b 55 80 43 40 43 40 b 43 40 48 38 56 34 b 64 30 75 26 87 21 b 100 17 112 13 125 9 b 137 6 148 4 157 5 b 166 5 170 8 172 15 b 190 127 214 250 242 382 b 271 514 298 625 324 713 b 329 727 333 743 336 763 b 340 783 340 802 336 820 b 332 838 320 851 299 859 b 260 871 222 868 186 849 b 150 831 119 803 91 766 b 63 729 41 690 25 648 b 10 605 2 566 2 531 b 3 496 14 470 35 454 z"},"H":{"x_min":0,"x_max":587,"ha":587,"o":"m 11 454 b 19 448 27 446 37 447 b 46 449 56 452 64 457 b 74 461 81 466 87 471 b 93 476 96 478 96 478 b 72 521 63 565 70 608 b 77 651 90 688 110 721 b 130 754 149 776 167 789 b 185 801 193 799 191 781 b 168 647 140 513 106 379 b 72 373 44 364 22 354 b 1 344 -11 332 -12 319 b -13 313 -12 305 -11 293 b -10 283 -8 271 -7 260 b -5 249 -3 239 -2 231 b -1 223 0 219 0 219 b 7 228 33 243 78 265 b 60 195 45 139 33 96 b 21 53 15 32 15 32 b 15 32 20 30 28 26 b 36 22 46 18 59 13 b 71 8 83 4 95 0 b 107 -3 118 -4 126 -4 b 135 -4 140 0 141 6 b 153 103 170 203 193 306 b 252 323 315 329 382 325 l 313 8 b 313 8 317 7 325 6 b 333 4 341 2 353 1 b 363 -1 375 -2 385 -2 b 396 -3 406 -2 414 0 b 421 2 426 7 427 13 b 438 99 455 195 477 303 b 491 298 504 292 517 285 b 517 285 519 287 523 291 b 528 295 532 300 537 307 b 542 313 546 320 548 328 b 551 335 550 343 547 351 b 540 364 522 375 494 383 b 516 482 537 572 557 652 b 577 733 592 791 602 825 b 604 832 601 836 593 837 b 586 838 577 837 565 834 b 553 831 542 828 529 823 b 517 819 506 815 498 812 b 489 808 485 806 485 806 l 397 398 b 338 402 277 400 213 395 b 232 476 250 549 267 613 b 278 657 288 693 294 724 b 298 737 301 752 303 769 b 306 786 305 802 301 818 b 297 833 288 844 273 852 b 235 867 199 867 163 852 b 127 836 95 810 66 775 b 38 740 16 701 -1 659 b -18 617 -25 577 -24 540 b -24 502 -12 474 11 454 z"},"4":{"x_min":0,"x_max":450,"ha":450,"o":"m 415 702 b 412 690 400 644 382 561 b 363 479 343 387 320 285 b 300 291 270 295 229 298 b 188 301 142 295 90 282 b 123 348 163 417 210 490 b 258 562 304 624 349 675 b 349 675 348 677 346 681 b 344 685 341 689 338 695 b 334 700 330 706 325 710 b 320 715 314 718 309 720 b 302 722 296 722 289 718 b 282 715 275 709 268 699 b 212 620 166 551 128 492 b 91 433 54 371 19 306 b 8 286 2 266 1 248 b 0 230 4 215 13 206 b 21 195 34 192 51 196 b 125 216 182 225 222 225 b 262 225 290 222 305 215 b 290 146 277 86 266 37 b 264 26 265 18 270 12 b 275 6 281 2 290 0 b 298 -3 307 -4 316 -5 b 325 -5 333 -5 339 -5 b 345 -4 348 -4 348 -4 l 495 694 b 495 694 492 695 487 697 b 482 700 476 702 469 705 b 462 708 455 710 447 711 b 439 713 432 713 426 712 b 420 711 417 707 415 702 z"},"~":{"x_min":0,"x_max":354,"ha":354,"o":"m 146 300 b 126 310 108 312 89 306 b 71 300 55 290 43 275 b 31 260 25 244 24 226 b 50 238 72 244 92 243 b 112 243 129 239 143 232 b 157 225 168 218 176 212 b 179 210 181 208 183 207 b 206 193 226 186 242 188 b 259 188 273 194 284 204 b 295 214 304 226 311 239 b 317 252 322 264 325 274 b 328 285 329 290 329 290 b 329 290 328 288 325 285 b 323 282 318 279 312 275 b 307 271 299 268 290 266 b 280 263 269 262 255 263 b 241 263 226 266 208 272 b 189 278 169 287 146 300 z"},"D":{"x_min":0,"x_max":675,"ha":675,"o":"m 282 650 b 282 650 276 627 265 581 b 254 534 241 479 225 413 b 188 398 153 377 119 351 b 84 324 54 292 27 255 b -3 212 -22 171 -32 131 b -42 91 -40 56 -25 26 b -11 -3 18 -23 61 -33 b 104 -44 164 -41 239 -23 b 315 -3 383 35 444 92 b 505 149 556 215 595 292 b 635 368 661 445 672 522 b 683 599 677 667 652 727 b 628 786 583 827 516 850 b 461 866 409 869 357 858 b 306 847 260 829 219 803 b 178 777 146 749 124 720 b 102 691 92 666 95 646 b 99 625 119 615 156 615 b 156 615 163 625 176 644 b 188 662 208 684 232 707 b 257 730 288 750 325 766 b 361 781 404 787 452 782 b 491 777 518 754 534 714 b 549 674 554 624 549 564 b 543 504 528 442 504 377 b 479 312 447 252 407 197 b 367 142 319 99 265 68 b 264 77 267 106 272 156 b 277 206 291 278 312 372 b 339 379 364 377 386 365 b 386 365 388 368 390 372 b 393 375 396 381 399 387 b 402 393 404 399 405 406 b 406 413 404 418 400 424 b 397 429 390 433 379 435 b 363 438 346 439 329 438 b 344 497 363 563 387 637 b 389 645 387 650 381 653 b 375 656 366 657 355 658 b 345 658 333 657 322 656 b 311 655 302 653 294 652 b 286 650 282 650 282 650 z m 255 62 b 210 39 161 29 108 32 b 78 34 60 45 54 65 b 48 85 52 109 64 138 b 76 167 94 197 119 229 b 143 259 170 287 201 312 b 179 219 162 144 150 87 b 148 73 153 64 167 61 b 180 57 195 55 213 57 b 230 58 244 60 255 62 z"},"^":{"x_min":0,"x_max":229,"ha":229,"o":"m 26 574 b 27 572 29 570 33 569 b 36 567 40 566 44 564 b 49 563 53 562 56 562 b 60 562 62 562 62 562 b 63 563 68 568 75 578 b 85 590 100 608 120 631 b 126 639 132 646 138 653 b 140 646 141 639 142 631 b 146 608 148 591 149 578 b 150 569 151 563 152 562 b 152 562 154 562 158 562 b 162 562 166 563 171 564 b 176 566 181 567 186 569 b 190 570 194 572 196 574 b 202 582 203 598 198 624 b 194 650 188 676 182 702 b 179 712 177 720 175 728 b 174 732 170 734 166 734 b 161 734 157 732 152 728 b 145 720 137 712 128 702 b 112 686 97 668 81 650 b 64 632 51 616 40 602 b 30 587 25 578 26 574 z"},"0":{"x_min":0,"x_max":447,"ha":447,"o":"m 389 640 b 398 644 407 648 417 652 b 417 652 416 654 416 658 b 415 662 414 666 411 671 b 408 677 404 682 399 687 b 394 692 386 696 377 699 b 367 702 355 703 341 702 b 326 700 309 696 288 689 b 242 671 198 637 156 585 b 114 534 79 475 50 408 b 21 342 3 277 -4 214 b -12 150 -4 98 19 57 b 42 15 84 -7 146 -8 b 199 -7 247 15 291 55 b 335 96 373 147 403 208 b 434 270 455 332 467 395 b 479 458 479 512 468 558 b 456 603 430 630 389 640 z m 204 66 b 171 37 145 28 125 42 b 106 55 94 83 91 125 b 87 167 92 216 106 272 b 120 329 144 386 178 443 b 211 500 255 549 311 592 b 336 589 356 570 369 536 b 382 501 386 458 381 405 b 375 353 359 296 331 237 b 303 177 260 121 204 66 z"},"F":{"x_min":0,"x_max":464,"ha":464,"o":"m 34 669 b 65 646 93 616 117 579 b 141 542 155 503 161 461 l 156 438 b 116 430 71 418 21 403 b 11 397 5 388 3 376 b 1 364 1 352 4 341 b 7 330 10 323 14 321 b 19 319 30 322 48 331 b 70 341 101 352 141 363 l 66 7 b 66 7 70 7 78 5 b 85 4 94 2 105 1 b 117 0 128 -1 139 -1 b 151 -1 161 0 168 3 b 176 5 181 10 182 16 b 198 125 220 245 249 375 b 293 375 343 366 398 348 b 398 348 400 350 405 354 b 409 358 414 363 420 370 b 426 376 431 382 436 390 b 440 396 444 403 445 409 b 446 415 445 420 440 423 b 429 431 410 438 381 445 b 353 452 314 455 265 452 b 284 537 301 611 316 675 b 325 714 333 746 338 771 b 375 773 414 772 456 766 b 498 760 542 750 590 733 b 590 733 594 736 601 741 b 608 746 616 753 626 761 b 636 769 645 777 654 786 b 663 794 669 802 673 809 b 677 816 677 822 672 825 b 660 834 629 842 580 850 b 530 857 463 859 380 854 b 296 850 197 833 84 806 b 76 802 69 792 62 779 b 55 766 49 751 44 735 b 39 719 35 705 33 692 b 31 680 32 672 34 669 z m 222 752 l 186 579 b 178 605 167 629 154 653 b 140 676 123 694 102 706 b 134 723 174 739 222 752 z"},"`":{"x_min":0,"x_max":137,"ha":137,"o":"m 69 705 b 66 705 62 703 58 701 b 53 698 48 696 43 693 b 38 690 34 688 30 685 b 26 683 24 681 24 681 b 24 680 26 676 29 669 b 32 660 37 647 42 631 b 52 602 58 580 61 564 b 62 559 63 555 63 553 b 64 552 66 553 71 554 b 76 556 82 558 88 561 b 94 563 100 565 105 568 b 110 570 112 572 113 574 b 113 574 112 578 111 587 b 109 596 107 607 104 621 b 102 634 99 646 95 660 b 91 673 87 684 83 692 b 79 701 74 705 69 705 z"},"k":{"x_min":0,"x_max":320,"ha":320,"o":"m 343 309 b 343 309 340 301 333 284 b 326 267 317 247 306 223 b 295 199 283 176 269 154 b 256 131 242 114 228 102 b 206 83 187 75 172 78 b 157 80 145 89 135 103 b 125 117 119 133 114 149 b 109 166 106 179 104 189 b 126 208 151 230 179 256 b 207 282 233 307 258 331 b 291 362 312 381 321 389 b 326 394 328 400 326 408 b 324 415 320 422 314 429 b 308 436 302 441 296 445 b 290 448 285 449 283 447 b 261 422 232 393 195 358 b 159 323 127 294 101 270 b 123 360 146 449 168 537 b 191 625 209 691 222 733 b 225 742 223 749 215 752 b 208 755 199 757 188 756 b 175 756 163 754 151 752 b 138 750 127 747 119 745 b 110 743 105 742 105 742 b 105 742 97 707 80 639 b 62 570 42 491 20 401 b -2 312 -22 230 -40 158 b -57 85 -67 42 -69 27 b -70 18 -67 11 -61 7 b -54 3 -44 0 -34 0 b -22 0 -11 1 0 2 b 12 4 21 6 29 8 b 37 10 41 11 41 11 b 41 11 42 21 46 41 b 49 61 54 83 61 108 b 64 90 71 73 83 57 b 94 41 106 28 120 18 b 149 -3 176 -6 201 8 b 226 23 249 47 269 80 b 289 114 306 149 321 186 b 335 223 347 255 355 280 b 358 290 361 297 363 304 l 343 309 z"},"u":{"x_min":0,"x_max":398,"ha":398,"o":"m 417 299 b 417 299 412 291 403 274 b 394 257 382 239 369 218 b 355 197 342 178 328 162 b 314 146 303 138 292 138 b 285 139 282 147 285 165 b 287 182 292 204 300 230 b 308 257 316 284 325 312 b 337 349 347 380 354 406 b 355 416 353 422 346 425 b 339 429 330 430 317 430 b 306 429 294 428 281 425 b 269 423 259 420 250 418 b 241 416 237 415 237 415 b 237 415 230 402 217 376 b 204 350 188 320 169 287 b 151 254 134 224 118 198 b 103 172 92 158 85 156 b 78 154 75 161 77 176 b 79 190 83 210 90 234 b 98 258 105 283 114 310 b 127 347 137 379 144 406 b 146 416 143 422 136 425 b 129 429 120 430 108 430 b 96 429 84 428 72 425 b 60 423 49 420 40 418 b 32 416 27 415 27 415 b 27 415 23 400 16 372 b 8 343 -1 309 -12 270 b -22 231 -31 195 -40 161 b -48 127 -53 104 -54 92 b -57 62 -52 40 -39 23 b -26 7 -11 -1 6 0 b 30 3 60 29 94 76 b 128 124 161 180 191 244 b 182 210 174 178 167 150 b 161 122 157 103 155 92 b 153 62 158 40 171 23 b 184 7 199 -1 217 0 b 248 3 283 30 321 83 b 359 135 397 207 435 299 l 417 299 z"},"]":{"x_min":0,"x_max":433,"ha":433,"o":"m 43 66 b 41 66 39 64 37 59 b 35 55 33 48 31 41 b 30 34 28 26 27 19 b 26 12 26 5 25 0 b 25 -5 24 -7 24 -7 b 24 -7 38 -5 64 -1 b 91 2 122 5 157 6 b 192 8 224 6 253 1 b 253 1 260 37 275 108 b 291 180 308 262 327 354 b 347 447 364 530 379 602 b 394 675 402 716 403 726 b 403 727 403 728 403 729 b 405 734 406 740 407 745 b 408 750 408 752 407 753 b 400 760 391 763 377 763 b 365 764 349 763 329 762 b 311 760 290 759 266 758 b 242 758 215 759 185 762 b 182 762 180 759 178 755 b 176 750 174 744 172 736 b 171 729 170 722 169 714 b 167 707 167 701 167 696 b 166 691 166 688 166 688 b 166 688 174 689 190 692 b 206 694 227 696 251 699 b 275 701 301 702 327 702 b 313 611 296 522 277 436 b 257 350 239 274 222 208 b 206 145 194 98 188 66 b 170 65 149 63 125 63 b 101 62 74 63 43 66 z"},"U":{"x_min":0,"x_max":615,"ha":615,"o":"m 301 738 b 301 705 294 662 281 608 b 268 554 252 497 234 435 b 217 375 202 318 188 263 b 174 207 165 159 161 118 b 159 91 164 67 176 44 b 187 22 205 11 229 10 b 252 10 281 29 316 68 b 351 107 390 174 435 271 b 435 271 432 261 426 244 b 419 226 414 204 408 177 b 401 151 397 125 396 99 b 395 72 397 50 405 31 b 413 13 428 3 450 1 b 476 0 500 13 524 39 b 549 64 571 95 591 132 b 611 168 628 203 643 236 b 656 269 666 292 671 306 b 672 310 673 312 674 313 l 647 320 b 644 314 642 309 639 303 b 625 269 610 238 594 211 b 579 184 559 159 534 136 b 510 115 500 119 501 148 b 503 178 514 222 531 282 b 549 342 570 407 593 478 b 617 550 638 617 657 679 b 660 691 660 701 655 708 b 651 716 645 721 636 724 b 627 727 619 729 609 730 b 600 730 592 731 585 730 b 579 730 575 729 575 729 l 489 463 b 465 390 425 322 371 262 b 356 246 343 232 330 223 b 317 213 308 209 301 212 b 293 215 291 228 293 249 b 297 289 307 334 321 385 b 335 436 351 487 367 539 b 386 596 401 647 414 694 b 426 741 431 777 428 802 b 423 833 408 852 383 859 b 357 866 325 855 288 827 b 250 799 211 748 170 674 b 158 651 147 630 138 611 b 112 559 88 518 65 486 b 42 455 11 431 -29 415 b -29 415 -29 414 -28 413 b -25 406 -18 396 -6 383 b 4 371 20 362 38 358 b 56 354 78 362 103 381 b 125 399 141 420 151 442 b 162 465 172 491 181 522 b 188 543 195 567 205 595 b 215 622 228 653 244 688 b 245 688 246 690 246 691 b 255 710 264 727 273 742 b 278 749 284 751 291 751 b 297 750 301 746 301 738 z"},"o":{"x_min":0,"x_max":297,"ha":297,"o":"m 333 299 l 313 306 b 313 306 310 300 303 287 b 296 273 287 258 274 242 b 261 226 246 212 228 202 b 229 223 224 239 212 250 b 206 257 198 262 190 265 b 201 279 212 298 224 321 b 235 345 242 368 244 391 b 246 414 236 432 216 445 b 186 461 154 461 123 443 b 91 425 62 397 36 359 b 10 320 -11 278 -24 232 b -39 187 -43 144 -38 104 b -33 64 -16 34 15 14 b 42 -1 68 -2 96 11 b 123 25 148 46 170 74 b 192 103 208 132 219 162 b 240 170 261 186 281 208 b 301 229 318 260 333 299 z m 194 189 b 175 186 161 187 152 192 b 143 198 138 205 138 213 b 137 222 141 228 148 232 b 155 237 165 237 178 231 b 191 224 197 210 194 189 z m 139 101 b 123 88 106 82 89 84 b 72 85 59 94 51 109 b 44 122 41 137 40 155 b 40 173 44 192 52 212 b 72 257 93 290 114 311 b 135 332 152 342 166 341 b 179 340 183 329 178 309 b 172 289 167 276 164 271 b 141 268 124 257 112 238 b 100 219 100 199 111 179 b 125 160 149 151 182 153 b 172 135 158 117 139 101 z"},"N":{"x_min":0,"x_max":641,"ha":641,"o":"m 53 360 b 78 374 98 391 113 411 b 128 431 143 455 158 484 b 169 503 183 526 198 551 b 213 576 232 604 255 635 b 269 653 282 667 295 677 b 273 549 254 449 239 376 b 224 302 209 244 197 201 b 185 157 172 117 159 79 b 153 62 153 48 158 38 b 163 27 171 20 182 14 b 192 8 204 4 215 2 b 227 0 237 -1 246 -2 b 254 -2 258 -2 258 -2 b 258 -2 260 9 264 31 b 268 52 272 79 278 110 b 284 141 291 171 297 201 b 305 230 312 254 318 272 b 347 340 379 402 415 458 b 450 514 481 559 509 593 b 536 627 549 644 549 644 b 549 644 542 622 527 579 b 512 536 496 482 479 419 b 461 355 447 291 438 225 b 428 159 428 102 437 54 b 440 38 446 27 455 22 b 464 18 474 16 484 19 b 496 21 506 24 516 30 b 526 36 535 41 542 46 b 549 51 552 54 552 54 b 542 112 543 183 554 267 b 566 350 582 432 602 514 b 623 596 642 665 659 721 b 677 777 686 805 686 805 b 686 805 684 806 681 808 b 678 811 674 812 668 814 b 662 816 655 817 646 816 b 637 816 627 813 615 809 b 603 805 590 797 575 786 b 560 775 543 760 525 741 b 508 722 488 697 467 668 b 446 639 423 603 399 561 b 375 519 349 470 322 414 b 322 414 325 427 331 454 b 337 481 345 514 355 553 b 364 592 374 631 384 670 b 394 709 402 741 410 767 b 417 792 410 807 391 812 b 372 817 344 807 307 781 b 270 755 229 708 183 638 b 138 567 98 516 63 483 b 28 451 -14 432 -62 424 b -62 424 -62 423 -61 422 b -60 417 -57 409 -53 398 b -48 387 -42 377 -33 367 b -24 357 -13 351 1 349 b 15 346 33 350 53 360 z"},"+":{"x_min":0,"x_max":318,"ha":318,"o":"m 275 217 b 278 217 280 219 282 224 b 285 228 286 233 288 240 b 289 247 291 254 291 260 b 292 267 292 273 293 278 b 293 282 293 285 293 285 b 293 285 284 284 265 281 b 246 279 222 277 194 274 b 199 308 208 347 219 392 b 220 396 218 398 214 399 b 209 401 204 402 197 402 b 191 402 184 402 177 401 b 170 401 165 400 160 400 b 155 399 152 399 152 399 b 152 399 151 387 149 362 b 147 338 144 308 139 272 b 103 271 69 272 38 276 b 38 276 37 274 36 269 b 34 264 32 258 30 252 b 28 246 27 240 26 234 b 25 229 25 226 26 225 b 34 219 45 216 59 215 b 74 215 92 215 114 217 b 119 217 125 218 131 218 b 125 177 116 138 105 103 b 105 103 107 103 112 102 b 117 101 123 100 129 99 b 135 98 141 98 146 98 b 151 98 155 99 157 101 b 164 110 169 124 173 141 b 177 158 180 179 184 204 b 184 209 185 214 186 220 b 212 221 242 219 275 217 z"},"G":{"x_min":0,"x_max":543,"ha":543,"o":"m 142 153 b 143 153 145 153 146 153 b 146 153 146 153 147 153 b 130 136 117 112 109 81 b 103 53 105 27 116 4 b 126 -19 143 -35 167 -44 b 190 -54 219 -54 252 -43 b 282 -34 312 -13 342 21 b 373 55 402 106 430 176 b 456 183 481 193 506 208 b 532 223 556 244 579 271 l 556 298 b 525 267 490 245 451 234 b 477 308 500 403 521 519 b 523 534 518 546 504 556 b 490 565 474 568 454 563 b 435 559 417 543 401 516 b 392 499 380 478 365 453 b 350 428 333 402 315 375 b 296 348 277 322 257 298 b 236 274 217 255 197 240 b 178 225 160 217 144 217 b 127 217 118 229 116 255 b 114 280 118 312 127 350 b 137 389 151 430 170 474 b 189 517 211 559 238 597 b 264 636 293 667 325 691 b 360 717 386 730 402 731 b 418 731 427 724 428 710 b 429 695 424 679 415 662 b 405 644 392 629 375 619 b 375 619 376 617 379 614 b 381 611 385 608 389 604 b 393 601 398 597 404 595 b 410 592 416 590 423 590 b 430 590 437 593 444 597 b 452 602 460 609 468 621 b 483 642 496 667 507 697 b 519 727 524 754 524 781 b 524 808 515 828 497 842 b 479 855 448 857 405 848 b 328 827 260 792 202 740 b 144 688 97 629 62 564 b 26 499 5 435 -3 373 b -11 311 -4 259 19 218 b 42 177 83 156 142 153 z m 397 400 b 385 327 367 264 345 213 b 337 212 329 211 321 210 b 301 208 281 206 261 203 b 290 228 314 255 334 286 b 354 316 370 343 380 365 b 392 388 397 400 397 400 z m 320 159 b 285 99 253 60 223 42 b 193 25 177 29 174 55 b 173 85 178 108 190 122 b 202 136 218 145 239 150 b 260 154 285 157 312 159 b 314 159 317 159 320 159 z"},"q":{"x_min":0,"x_max":415,"ha":415,"o":"m 104 145 b 104 145 103 145 101 143 b 99 142 97 141 93 140 b 90 139 87 138 84 137 b 81 137 78 138 75 139 b 72 141 70 144 69 148 b 67 153 67 160 68 168 b 69 178 74 195 82 220 b 89 245 101 271 114 299 b 128 327 146 351 165 370 b 177 382 186 387 191 385 b 196 383 200 376 204 365 b 212 343 212 319 204 293 b 195 268 183 244 167 222 b 152 200 138 181 124 167 b 111 152 104 145 104 145 z m 452 300 l 426 315 b 396 256 353 197 297 138 b 324 246 349 335 370 406 b 372 416 370 421 363 425 b 356 428 346 430 334 429 b 323 429 311 427 298 425 b 286 423 275 420 266 418 b 257 416 253 415 253 415 b 253 415 249 399 241 367 b 239 377 236 388 231 398 b 217 434 198 452 175 454 b 152 456 128 446 103 425 b 78 404 54 378 32 346 b 9 313 -8 280 -21 248 b -43 191 -52 143 -50 104 b -47 65 -36 36 -18 19 b 1 1 23 -4 50 2 b 76 12 101 34 127 69 b 152 104 174 140 192 174 b 177 114 162 51 145 -16 b 145 -16 145 -16 145 -16 b 144 -17 135 -25 120 -40 b 104 -54 87 -73 66 -96 b 46 -118 28 -141 12 -165 b -4 -189 -14 -211 -17 -230 b -19 -245 -15 -258 -5 -270 b 4 -282 16 -293 32 -304 b 43 -312 55 -319 67 -327 b 57 -378 49 -422 44 -459 b 40 -496 42 -523 50 -542 b 59 -561 77 -568 104 -565 b 123 -563 145 -557 171 -545 b 197 -535 220 -519 239 -500 b 258 -480 266 -457 262 -429 b 257 -409 247 -391 232 -375 b 216 -359 199 -345 180 -333 b 207 -220 237 -95 272 42 b 300 74 330 110 359 151 b 389 192 420 242 452 300 z m 188 -419 b 195 -433 194 -446 184 -459 b 173 -472 159 -483 142 -494 b 147 -469 156 -435 166 -393 b 175 -401 182 -410 188 -419 z m 59 -232 b 59 -232 60 -229 63 -224 b 79 -197 95 -172 111 -149 b 106 -171 102 -191 97 -211 b 93 -229 89 -247 85 -265 b 83 -264 81 -262 79 -261 b 72 -256 67 -251 63 -247 b 59 -243 58 -238 59 -232 z"},"d":{"x_min":0,"x_max":412,"ha":412,"o":"m 423 299 b 423 299 418 291 409 274 b 400 257 389 239 375 218 b 362 197 348 178 334 162 b 321 146 309 138 299 138 b 291 140 292 167 303 218 b 313 268 328 329 347 399 b 367 470 385 537 404 600 b 422 662 436 707 444 733 b 446 742 444 749 437 752 b 430 755 421 757 409 756 b 397 756 385 754 373 752 b 360 750 349 747 340 745 b 332 743 327 742 327 742 b 327 742 322 724 313 688 b 304 652 292 607 277 553 b 263 499 249 441 233 383 b 231 388 229 394 227 399 b 213 435 194 453 171 455 b 148 457 124 447 99 426 b 73 405 50 379 27 347 b 5 314 -12 281 -25 249 b -47 192 -57 144 -54 105 b -51 66 -41 37 -22 20 b -3 2 20 -3 46 3 b 68 11 90 29 113 58 b 136 87 156 118 174 150 b 167 119 163 100 162 92 b 159 63 165 41 177 26 b 190 12 205 5 223 6 b 254 8 289 35 327 85 b 365 136 403 208 440 299 l 423 299 z m 99 145 b 99 145 98 145 96 143 b 94 142 92 141 89 140 b 86 139 83 138 79 137 b 76 137 73 138 70 139 b 67 141 65 144 64 148 b 63 153 62 160 63 168 b 64 178 69 195 77 220 b 85 245 96 271 110 299 b 124 327 141 351 160 370 b 172 382 181 387 186 385 b 191 383 196 376 200 365 b 208 343 208 319 199 293 b 190 268 178 244 163 222 b 147 200 133 181 120 167 b 106 152 99 145 99 145 z"},"1":{"x_min":0,"x_max":214,"ha":214,"o":"m 157 729 b 151 727 143 724 133 720 b 123 716 113 712 103 708 b 93 703 84 700 77 696 b 69 693 66 692 66 692 b 66 692 66 689 66 684 b 66 679 66 672 67 666 b 68 658 69 651 71 645 b 72 639 75 634 78 631 b 81 628 85 628 93 629 b 100 630 107 632 115 635 b 123 638 129 640 134 642 b 115 548 98 470 84 407 b 71 345 58 286 45 229 b 33 174 19 111 3 38 b 1 27 3 19 8 13 b 14 7 21 3 30 1 b 40 -1 49 -2 59 -2 b 68 -2 77 -1 84 0 b 91 0 94 1 94 1 l 246 726 b 246 726 242 727 234 730 b 227 733 216 735 203 736 b 189 737 174 734 157 729 z"},"5":{"x_min":0,"x_max":459,"ha":459,"o":"m 155 721 b 155 721 150 700 141 658 b 130 616 119 567 107 512 b 94 457 83 407 73 362 b 72 356 73 348 77 337 b 80 326 84 317 89 309 b 95 300 100 297 105 298 b 140 311 173 321 207 329 b 240 337 269 340 293 338 b 317 335 333 326 338 308 b 343 291 334 262 312 224 b 281 173 248 135 213 110 b 179 85 148 72 122 71 b 95 70 78 80 70 101 b 62 121 69 151 91 192 b 97 202 99 211 96 218 b 93 225 88 230 81 235 b 74 239 66 242 58 245 b 49 247 42 248 36 249 b 29 250 26 250 26 250 b 26 250 24 243 19 229 b 14 214 10 196 6 174 b 2 153 0 130 2 106 b 3 83 10 62 21 42 b 34 23 53 9 80 0 b 113 -10 150 -7 189 8 b 228 24 265 47 301 79 b 337 110 367 145 392 182 b 417 220 432 256 438 291 b 443 325 435 354 413 375 b 397 389 376 397 350 400 b 324 403 298 402 272 398 b 246 395 223 391 205 386 b 186 381 177 378 177 378 b 177 378 180 389 187 410 b 192 430 200 455 208 482 b 217 510 225 537 232 561 b 240 585 245 602 248 611 b 248 611 257 609 275 605 b 294 602 317 599 346 597 b 375 595 406 596 439 601 b 472 606 503 617 533 634 b 541 638 545 644 549 651 b 552 658 555 665 556 672 b 557 680 557 686 557 691 b 556 696 556 698 556 698 b 552 699 541 698 521 696 b 497 693 465 691 424 689 b 384 687 340 688 293 692 b 246 696 200 706 155 721 z"}}}
